# MagicaVoxel @ Ephtracy

# group
o 

# material
mtllib art_5.mtl
usemtl palette

# normals
vn -1 0 0
vn 1 0 0
vn 0 0 1
vn 0 0 -1
vn 0 -1 0
vn 0 1 0

# texcoords
vt 0.00195312 0.5
vt 0.00976562 0.5
vt 0.0136719 0.5
vt 0.0214844 0.5

# verts
v -0.3 0.1 -0.7
v -0.3 0.1 -1.2
v -0.3 0.5 -0.7
v -0.3 0.5 -1.2
v -0.3 0.6 -0.7
v -0.3 0.6 -1.2
v -0.3 0.7 -0.7
v -0.3 0.7 -1.2
v -0.1 0.3 -0.6
v -0.1 0.3 -0.7
v -0.1 0.4 -0.7
v -0.1 0.5 -0.6
v -0.1 0.5 -0.7
v -0.1 0.7 -1
v -0.1 0.7 -1.1
v -0.1 0.8 -1
v -0.1 0.8 -1.1
v 0.1 0.3 -0.6
v 0.1 0.3 -0.7
v 0.1 0.4 -0.7
v 0.1 0.5 -0.6
v 0.1 0.5 -0.7
v 0.1 0.7 -1
v 0.1 0.7 -1.1
v 0.1 0.8 -1
v 0.1 0.8 -1.1
v 0.3 0.1 -0.7
v 0.3 0.1 -1.2
v 0.3 0.5 -0.7
v 0.3 0.5 -1.2
v 0.3 0.6 -0.7
v 0.3 0.6 -1.2
v 0.3 0.7 -0.7
v 0.3 0.7 -1.2
v -0.1 0.3 -0.6
v -0.1 0.5 -0.6
v 0.1 0.3 -0.6
v 0.1 0.5 -0.6
v -0.3 0.1 -0.7
v -0.3 0.5 -0.7
v -0.3 0.6 -0.7
v -0.3 0.7 -0.7
v -0.2 0.4 -0.7
v -0.2 0.5 -0.7
v -0.2 0.6 -0.7
v -0.1 0.3 -0.7
v -0.1 0.4 -0.7
v -0.1 0.5 -0.7
v 0.1 0.3 -0.7
v 0.1 0.4 -0.7
v 0.1 0.5 -0.7
v 0.2 0.4 -0.7
v 0.2 0.5 -0.7
v 0.2 0.6 -0.7
v 0.3 0.1 -0.7
v 0.3 0.5 -0.7
v 0.3 0.6 -0.7
v 0.3 0.7 -0.7
v -0.1 0.7 -1
v -0.1 0.8 -1
v 0.1 0.7 -1
v 0.1 0.8 -1
v -0.1 0.7 -1.1
v -0.1 0.8 -1.1
v 0.1 0.7 -1.1
v 0.1 0.8 -1.1
v -0.3 0.1 -1.2
v -0.3 0.5 -1.2
v -0.3 0.6 -1.2
v -0.3 0.7 -1.2
v -0.2 0.4 -1.2
v -0.2 0.5 -1.2
v -0.2 0.6 -1.2
v -0.1 0.4 -1.2
v -0.1 0.5 -1.2
v 0.1 0.4 -1.2
v 0.1 0.5 -1.2
v 0.2 0.4 -1.2
v 0.2 0.5 -1.2
v 0.2 0.6 -1.2
v 0.3 0.1 -1.2
v 0.3 0.5 -1.2
v 0.3 0.6 -1.2
v 0.3 0.7 -1.2
v -0.3 0.1 -0.7
v 0.3 0.1 -0.7
v -0.3 0.1 -1.2
v 0.3 0.1 -1.2
v -0.1 0.3 -0.6
v 0.1 0.3 -0.6
v -0.1 0.3 -0.7
v 0.1 0.3 -0.7
v -0.1 0.5 -0.6
v 0.1 0.5 -0.6
v -0.1 0.5 -0.7
v 0.1 0.5 -0.7
v -0.3 0.7 -0.7
v 0.3 0.7 -0.7
v -0.1 0.7 -1
v 0.1 0.7 -1
v -0.1 0.7 -1.1
v 0.1 0.7 -1.1
v -0.3 0.7 -1.2
v 0.3 0.7 -1.2
v -0.1 0.8 -1
v 0.1 0.8 -1
v -0.1 0.8 -1.1
v 0.1 0.8 -1.1

# faces
f 3/1/1 2/1/1 1/1/1
f 4/1/1 2/1/1 3/1/1
f 5/2/1 4/2/1 3/2/1
f 6/2/1 4/2/1 5/2/1
f 7/1/1 6/1/1 5/1/1
f 8/1/1 6/1/1 7/1/1
f 11/4/1 10/4/1 9/4/1
f 12/4/1 11/4/1 9/4/1
f 13/4/1 11/4/1 12/4/1
f 16/3/1 15/3/1 14/3/1
f 17/3/1 15/3/1 16/3/1
f 18/4/2 19/4/2 20/4/2
f 18/4/2 20/4/2 21/4/2
f 21/4/2 20/4/2 22/4/2
f 23/3/2 24/3/2 25/3/2
f 25/3/2 24/3/2 26/3/2
f 27/1/2 28/1/2 29/1/2
f 29/1/2 28/1/2 30/1/2
f 29/2/2 30/2/2 31/2/2
f 31/2/2 30/2/2 32/2/2
f 31/1/2 32/1/2 33/1/2
f 33/1/2 32/1/2 34/1/2
f 37/4/3 36/4/3 35/4/3
f 38/4/3 36/4/3 37/4/3
f 43/1/3 40/1/3 39/1/3
f 44/2/3 41/2/3 40/2/3
f 44/1/3 40/1/3 43/1/3
f 45/1/3 42/1/3 41/1/3
f 45/2/3 41/2/3 44/2/3
f 46/1/3 43/1/3 39/1/3
f 47/2/3 44/2/3 43/2/3
f 47/1/3 43/1/3 46/1/3
f 48/1/3 45/1/3 44/1/3
f 48/2/3 44/2/3 47/2/3
f 49/1/3 46/1/3 39/1/3
f 51/1/3 45/1/3 48/1/3
f 52/1/3 50/1/3 49/1/3
f 52/2/3 51/2/3 50/2/3
f 53/1/3 45/1/3 51/1/3
f 53/2/3 51/2/3 52/2/3
f 54/1/3 42/1/3 45/1/3
f 54/1/3 45/1/3 53/1/3
f 55/1/3 52/1/3 49/1/3
f 55/1/3 53/1/3 52/1/3
f 55/1/3 49/1/3 39/1/3
f 56/2/3 54/2/3 53/2/3
f 56/1/3 53/1/3 55/1/3
f 57/1/3 42/1/3 54/1/3
f 57/2/3 54/2/3 56/2/3
f 58/1/3 42/1/3 57/1/3
f 61/3/3 60/3/3 59/3/3
f 62/3/3 60/3/3 61/3/3
f 63/3/4 64/3/4 65/3/4
f 65/3/4 64/3/4 66/3/4
f 67/1/4 68/1/4 71/1/4
f 68/2/4 69/2/4 72/2/4
f 71/1/4 68/1/4 72/1/4
f 69/1/4 70/1/4 73/1/4
f 72/2/4 69/2/4 73/2/4
f 71/2/4 72/2/4 74/2/4
f 67/1/4 71/1/4 74/1/4
f 72/1/4 73/1/4 75/1/4
f 74/2/4 72/2/4 75/2/4
f 67/1/4 74/1/4 76/1/4
f 74/1/4 75/1/4 76/1/4
f 75/1/4 73/1/4 77/1/4
f 76/1/4 75/1/4 77/1/4
f 67/1/4 76/1/4 78/1/4
f 76/2/4 77/2/4 78/2/4
f 77/1/4 73/1/4 79/1/4
f 78/2/4 77/2/4 79/2/4
f 73/1/4 70/1/4 80/1/4
f 79/1/4 73/1/4 80/1/4
f 78/1/4 79/1/4 81/1/4
f 67/1/4 78/1/4 81/1/4
f 79/2/4 80/2/4 82/2/4
f 81/1/4 79/1/4 82/1/4
f 80/1/4 70/1/4 83/1/4
f 82/2/4 80/2/4 83/2/4
f 83/1/4 70/1/4 84/1/4
f 87/1/5 86/1/5 85/1/5
f 88/1/5 86/1/5 87/1/5
f 91/4/5 90/4/5 89/4/5
f 92/4/5 90/4/5 91/4/5
f 93/4/6 94/4/6 95/4/6
f 95/4/6 94/4/6 96/4/6
f 97/1/6 98/1/6 99/1/6
f 99/1/6 98/1/6 100/1/6
f 97/1/6 99/1/6 101/1/6
f 100/1/6 98/1/6 102/1/6
f 97/1/6 101/1/6 103/1/6
f 101/1/6 102/1/6 103/1/6
f 102/1/6 98/1/6 104/1/6
f 103/1/6 102/1/6 104/1/6
f 105/3/6 106/3/6 107/3/6
f 107/3/6 106/3/6 108/3/6
