# MagicaVoxel @ Ephtracy

# group
o 

# material
mtllib art_6.mtl
usemtl palette

# normals
vn -1 0 0
vn 1 0 0
vn 0 0 1
vn 0 0 -1
vn 0 -1 0
vn 0 1 0

# texcoords
vt 0.00195312 0.5
vt 0.00976562 0.5
vt 0.0136719 0.5
vt 0.0214844 0.5

# verts
v -0.2 0.2 -1.3
v -0.2 0.2 -1.8
v -0.2 0.4 -1.3
v -0.2 0.4 -1.8
v -0.2 0.5 -1.3
v -0.2 0.5 -1.8
v -0.2 0.6 -1.3
v -0.2 0.6 -1.8
v -0.0999999 0.3 -1.2
v -0.0999999 0.3 -1.3
v -0.0999999 0.4 -1.3
v -0.0999999 0.5 -1.2
v -0.0999999 0.5 -1.3
v -0.0999999 0.6 -1.6
v -0.0999999 0.6 -1.7
v -0.0999999 0.7 -1.6
v -0.0999999 0.7 -1.7
v 0.1 0.3 -1.2
v 0.1 0.3 -1.3
v 0.1 0.4 -1.3
v 0.1 0.5 -1.2
v 0.1 0.5 -1.3
v 0.1 0.6 -1.6
v 0.1 0.6 -1.7
v 0.1 0.7 -1.6
v 0.1 0.7 -1.7
v 0.2 0.2 -1.3
v 0.2 0.2 -1.8
v 0.2 0.4 -1.3
v 0.2 0.4 -1.8
v 0.2 0.5 -1.3
v 0.2 0.5 -1.8
v 0.2 0.6 -1.3
v 0.2 0.6 -1.8
v -0.0999999 0.3 -1.2
v -0.0999999 0.5 -1.2
v 0.1 0.3 -1.2
v 0.1 0.5 -1.2
v -0.2 0.2 -1.3
v -0.2 0.4 -1.3
v -0.2 0.5 -1.3
v -0.2 0.6 -1.3
v -0.0999999 0.3 -1.3
v -0.0999999 0.4 -1.3
v -0.0999999 0.5 -1.3
v 0.1 0.3 -1.3
v 0.1 0.4 -1.3
v 0.1 0.5 -1.3
v 0.2 0.2 -1.3
v 0.2 0.4 -1.3
v 0.2 0.5 -1.3
v 0.2 0.6 -1.3
v -0.0999999 0.6 -1.6
v -0.0999999 0.7 -1.6
v 0.1 0.6 -1.6
v 0.1 0.7 -1.6
v -0.0999999 0.6 -1.7
v -0.0999999 0.7 -1.7
v 0.1 0.6 -1.7
v 0.1 0.7 -1.7
v -0.2 0.2 -1.8
v -0.2 0.4 -1.8
v -0.2 0.5 -1.8
v -0.2 0.6 -1.8
v 0.2 0.2 -1.8
v 0.2 0.4 -1.8
v 0.2 0.5 -1.8
v 0.2 0.6 -1.8
v -0.2 0.2 -1.3
v 0.2 0.2 -1.3
v -0.2 0.2 -1.8
v 0.2 0.2 -1.8
v -0.0999999 0.3 -1.2
v 0.1 0.3 -1.2
v -0.0999999 0.3 -1.3
v 0.1 0.3 -1.3
v -0.0999999 0.5 -1.2
v 0.1 0.5 -1.2
v -0.0999999 0.5 -1.3
v 0.1 0.5 -1.3
v -0.2 0.6 -1.3
v 0.2 0.6 -1.3
v -0.0999999 0.6 -1.6
v 0.1 0.6 -1.6
v -0.0999999 0.6 -1.7
v 0.1 0.6 -1.7
v -0.2 0.6 -1.8
v 0.2 0.6 -1.8
v -0.0999999 0.7 -1.6
v 0.1 0.7 -1.6
v -0.0999999 0.7 -1.7
v 0.1 0.7 -1.7

# faces
f 3/1/1 2/1/1 1/1/1
f 4/1/1 2/1/1 3/1/1
f 5/2/1 4/2/1 3/2/1
f 6/2/1 4/2/1 5/2/1
f 7/1/1 6/1/1 5/1/1
f 8/1/1 6/1/1 7/1/1
f 11/4/1 10/4/1 9/4/1
f 12/4/1 11/4/1 9/4/1
f 13/4/1 11/4/1 12/4/1
f 16/3/1 15/3/1 14/3/1
f 17/3/1 15/3/1 16/3/1
f 18/4/2 19/4/2 20/4/2
f 18/4/2 20/4/2 21/4/2
f 21/4/2 20/4/2 22/4/2
f 23/3/2 24/3/2 25/3/2
f 25/3/2 24/3/2 26/3/2
f 27/1/2 28/1/2 29/1/2
f 29/1/2 28/1/2 30/1/2
f 29/2/2 30/2/2 31/2/2
f 31/2/2 30/2/2 32/2/2
f 31/1/2 32/1/2 33/1/2
f 33/1/2 32/1/2 34/1/2
f 37/4/3 36/4/3 35/4/3
f 38/4/3 36/4/3 37/4/3
f 43/1/3 40/1/3 39/1/3
f 44/2/3 41/2/3 40/2/3
f 44/1/3 40/1/3 43/1/3
f 45/1/3 42/1/3 41/1/3
f 45/2/3 41/2/3 44/2/3
f 46/1/3 43/1/3 39/1/3
f 48/1/3 42/1/3 45/1/3
f 49/1/3 47/1/3 46/1/3
f 49/1/3 46/1/3 39/1/3
f 50/2/3 48/2/3 47/2/3
f 50/1/3 47/1/3 49/1/3
f 51/1/3 42/1/3 48/1/3
f 51/2/3 48/2/3 50/2/3
f 52/1/3 42/1/3 51/1/3
f 55/3/3 54/3/3 53/3/3
f 56/3/3 54/3/3 55/3/3
f 57/3/4 58/3/4 59/3/4
f 59/3/4 58/3/4 60/3/4
f 61/1/4 62/1/4 65/1/4
f 62/2/4 63/2/4 66/2/4
f 65/1/4 62/1/4 66/1/4
f 63/1/4 64/1/4 67/1/4
f 66/2/4 63/2/4 67/2/4
f 67/1/4 64/1/4 68/1/4
f 71/1/5 70/1/5 69/1/5
f 72/1/5 70/1/5 71/1/5
f 75/4/5 74/4/5 73/4/5
f 76/4/5 74/4/5 75/4/5
f 77/4/6 78/4/6 79/4/6
f 79/4/6 78/4/6 80/4/6
f 81/1/6 82/1/6 83/1/6
f 83/1/6 82/1/6 84/1/6
f 81/1/6 83/1/6 85/1/6
f 84/1/6 82/1/6 86/1/6
f 81/1/6 85/1/6 87/1/6
f 85/1/6 86/1/6 87/1/6
f 86/1/6 82/1/6 88/1/6
f 87/1/6 86/1/6 88/1/6
f 89/3/6 90/3/6 91/3/6
f 91/3/6 90/3/6 92/3/6
