# MagicaVoxel @ Ephtracy

# group
o 

# material
mtllib cabeca.mtl
usemtl palette

# normals
vn -1 0 0
vn 1 0 0
vn 0 0 1
vn 0 0 -1
vn 0 -1 0
vn 0 1 0

# texcoords
vt 0.00195312 0.5
vt 0.00585938 0.5
vt 0.00976562 0.5
vt 0.0175781 0.5
vt 0.0253906 0.5

# verts
v -0.4 0.5 2.1
v -0.4 0.5 1.8
v -0.4 0.6 2.4
v -0.4 0.6 2.3
v -0.4 0.7 2.4
v -0.4 0.7 2.3
v -0.4 0.7 2.1
v -0.4 0.7 2
v -0.4 0.7 1.9
v -0.4 0.7 1.8
v -0.4 0.8 2
v -0.4 0.8 1.9
v -0.3 0.1 2.3
v -0.3 0.1 1.7
v -0.3 0.3 2.4
v -0.3 0.3 2.3
v -0.3 0.4 2
v -0.3 0.4 1.7
v -0.3 0.5 2.1
v -0.3 0.5 2
v -0.3 0.5 1.8
v -0.3 0.5 1.7
v -0.3 0.6 2.4
v -0.3 0.6 2.3
v -0.3 0.7 2.3
v -0.3 0.7 2.1
v -0.3 0.7 2
v -0.3 0.7 1.8
v -0.3 0.7 1.7
v -0.3 0.8 2.1
v -0.3 0.8 2
v 0.1 0.3 2.4
v 0.1 0.3 2.3
v 0.1 0.4 2.4
v 0.1 0.4 2.3
v 0.1 0.6 2.4
v 0.1 0.6 2.3
v 0.1 0.7 2.1
v 0.1 0.7 1.9
v 0.1 0.8 2.1
v 0.1 0.8 1.9
v 0.2 0.6 2.4
v 0.2 0.6 2.3
v 0.2 0.7 2.4
v 0.2 0.7 2.3
v -0.2 0.6 2.4
v -0.2 0.6 2.3
v -0.2 0.7 2.4
v -0.2 0.7 2.3
v -0.1 0.3 2.4
v -0.1 0.3 2.3
v -0.1 0.4 2.4
v -0.1 0.4 2.3
v -0.1 0.6 2.4
v -0.1 0.6 2.3
v -0.1 0.7 2.1
v -0.1 0.7 1.9
v -0.1 0.8 2.1
v -0.1 0.8 1.9
v 0.3 0.1 2.3
v 0.3 0.1 1.7
v 0.3 0.3 2.4
v 0.3 0.3 2.3
v 0.3 0.4 2
v 0.3 0.4 1.7
v 0.3 0.5 2.1
v 0.3 0.5 2
v 0.3 0.5 1.8
v 0.3 0.5 1.7
v 0.3 0.6 2.4
v 0.3 0.6 2.3
v 0.3 0.7 2.3
v 0.3 0.7 2.1
v 0.3 0.7 2
v 0.3 0.7 1.8
v 0.3 0.7 1.7
v 0.3 0.8 2.1
v 0.3 0.8 2
v 0.4 0.5 2.1
v 0.4 0.5 1.8
v 0.4 0.6 2.4
v 0.4 0.6 2.3
v 0.4 0.7 2.4
v 0.4 0.7 2.3
v 0.4 0.7 2.1
v 0.4 0.7 2
v 0.4 0.7 1.9
v 0.4 0.7 1.8
v 0.4 0.8 2
v 0.4 0.8 1.9
v -0.4 0.6 2.4
v -0.4 0.7 2.4
v -0.3 0.3 2.4
v -0.3 0.6 2.4
v -0.2 0.4 2.4
v -0.2 0.6 2.4
v -0.2 0.7 2.4
v -0.1 0.3 2.4
v -0.1 0.4 2.4
v -0.1 0.6 2.4
v 0.1 0.3 2.4
v 0.1 0.4 2.4
v 0.1 0.6 2.4
v 0.2 0.4 2.4
v 0.2 0.6 2.4
v 0.2 0.7 2.4
v 0.3 0.3 2.4
v 0.3 0.6 2.4
v 0.4 0.6 2.4
v 0.4 0.7 2.4
v -0.3 0.1 2.3
v -0.3 0.3 2.3
v -0.2 0.1 2.3
v -0.2 0.2 2.3
v -0.2 0.3 2.3
v -0.2 0.6 2.3
v -0.2 0.7 2.3
v -0.1 0.2 2.3
v -0.1 0.3 2.3
v -0.1 0.4 2.3
v -0.1 0.6 2.3
v 0.1 0.2 2.3
v 0.1 0.3 2.3
v 0.1 0.4 2.3
v 0.1 0.6 2.3
v 0.2 0.1 2.3
v 0.2 0.2 2.3
v 0.2 0.3 2.3
v 0.2 0.6 2.3
v 0.2 0.7 2.3
v 0.3 0.1 2.3
v 0.3 0.3 2.3
v -0.4 0.5 2.1
v -0.4 0.7 2.1
v -0.3 0.5 2.1
v -0.3 0.7 2.1
v -0.3 0.8 2.1
v -0.1 0.7 2.1
v -0.1 0.8 2.1
v 0.1 0.7 2.1
v 0.1 0.8 2.1
v 0.3 0.5 2.1
v 0.3 0.7 2.1
v 0.3 0.8 2.1
v 0.4 0.5 2.1
v 0.4 0.7 2.1
v -0.4 0.7 2
v -0.4 0.8 2
v -0.3 0.7 2
v -0.3 0.8 2
v 0.3 0.7 2
v 0.3 0.8 2
v 0.4 0.7 2
v 0.4 0.8 2
v -0.4 0.6 2.3
v -0.4 0.7 2.3
v -0.3 0.6 2.3
v -0.3 0.7 2.3
v 0.3 0.6 2.3
v 0.3 0.7 2.3
v 0.4 0.6 2.3
v 0.4 0.7 2.3
v -0.4 0.7 1.9
v -0.4 0.8 1.9
v -0.1 0.7 1.9
v -0.1 0.8 1.9
v 0.1 0.7 1.9
v 0.1 0.8 1.9
v 0.4 0.7 1.9
v 0.4 0.8 1.9
v -0.4 0.5 1.8
v -0.4 0.7 1.8
v -0.3 0.5 1.8
v -0.3 0.7 1.8
v 0.3 0.5 1.8
v 0.3 0.7 1.8
v 0.4 0.5 1.8
v 0.4 0.7 1.8
v -0.3 0.1 1.7
v -0.3 0.4 1.7
v -0.3 0.5 1.7
v -0.3 0.7 1.7
v -0.2 0.4 1.7
v -0.2 0.5 1.7
v 0.2 0.4 1.7
v 0.2 0.5 1.7
v 0.3 0.1 1.7
v 0.3 0.4 1.7
v 0.3 0.5 1.7
v 0.3 0.7 1.7
v -0.3 0.1 2.3
v -0.2 0.1 2.3
v 0.2 0.1 2.3
v 0.3 0.1 2.3
v -0.2 0.1 2.2
v 0.2 0.1 2.2
v -0.3 0.1 1.7
v 0.3 0.1 1.7
v -0.3 0.3 2.4
v -0.1 0.3 2.4
v 0.1 0.3 2.4
v 0.3 0.3 2.4
v -0.3 0.3 2.3
v -0.2 0.3 2.3
v -0.1 0.3 2.3
v 0.1 0.3 2.3
v 0.2 0.3 2.3
v 0.3 0.3 2.3
v -0.4 0.5 2.1
v -0.3 0.5 2.1
v 0.3 0.5 2.1
v 0.4 0.5 2.1
v -0.3 0.5 2
v 0.3 0.5 2
v -0.4 0.5 1.8
v -0.3 0.5 1.8
v 0.3 0.5 1.8
v 0.4 0.5 1.8
v -0.4 0.6 2.4
v -0.3 0.6 2.4
v 0.3 0.6 2.4
v 0.4 0.6 2.4
v -0.4 0.6 2.3
v -0.3 0.6 2.3
v 0.3 0.6 2.3
v 0.4 0.6 2.3
v -0.2 0.6 2.4
v -0.1 0.6 2.4
v 0.1 0.6 2.4
v 0.2 0.6 2.4
v -0.2 0.6 2.3
v -0.1 0.6 2.3
v 0.1 0.6 2.3
v 0.2 0.6 2.3
v -0.4 0.7 2.4
v -0.2 0.7 2.4
v 0.2 0.7 2.4
v 0.4 0.7 2.4
v -0.4 0.7 2.3
v -0.3 0.7 2.3
v -0.2 0.7 2.3
v 0.2 0.7 2.3
v 0.3 0.7 2.3
v 0.4 0.7 2.3
v -0.4 0.7 2.1
v -0.3 0.7 2.1
v -0.1 0.7 2.1
v 0.1 0.7 2.1
v 0.3 0.7 2.1
v 0.4 0.7 2.1
v -0.4 0.7 2
v -0.3 0.7 2
v 0.3 0.7 2
v 0.4 0.7 2
v -0.4 0.7 1.9
v -0.1 0.7 1.9
v 0.1 0.7 1.9
v 0.4 0.7 1.9
v -0.4 0.7 1.8
v -0.3 0.7 1.8
v 0.3 0.7 1.8
v 0.4 0.7 1.8
v -0.3 0.7 1.7
v 0.3 0.7 1.7
v -0.3 0.8 2.1
v -0.1 0.8 2.1
v 0.1 0.8 2.1
v 0.3 0.8 2.1
v -0.4 0.8 2
v -0.3 0.8 2
v 0.3 0.8 2
v 0.4 0.8 2
v -0.4 0.8 1.9
v -0.1 0.8 1.9
v 0.1 0.8 1.9
v 0.4 0.8 1.9

# faces
f 5/2/1 4/2/1 3/2/1
f 6/2/1 4/2/1 5/2/1
f 7/1/1 2/1/1 1/1/1
f 8/1/1 2/1/1 7/1/1
f 9/1/1 2/1/1 8/1/1
f 10/1/1 2/1/1 9/1/1
f 11/1/1 9/1/1 8/1/1
f 12/1/1 9/1/1 11/1/1
f 16/1/1 14/1/1 13/1/1
f 17/1/1 14/1/1 16/1/1
f 18/1/1 14/1/1 17/1/1
f 19/1/1 17/1/1 16/1/1
f 20/3/1 18/3/1 17/3/1
f 20/1/1 17/1/1 19/1/1
f 21/3/1 18/3/1 20/3/1
f 22/3/1 18/3/1 21/3/1
f 23/5/1 16/5/1 15/5/1
f 24/1/1 19/1/1 16/1/1
f 24/5/1 16/5/1 23/5/1
f 25/1/1 19/1/1 24/1/1
f 26/1/1 19/1/1 25/1/1
f 28/1/1 22/1/1 21/1/1
f 29/1/1 22/1/1 28/1/1
f 30/1/1 27/1/1 26/1/1
f 31/1/1 27/1/1 30/1/1
f 34/5/1 33/5/1 32/5/1
f 35/5/1 33/5/1 34/5/1
f 36/2/1 35/2/1 34/2/1
f 37/2/1 35/2/1 36/2/1
f 40/1/1 39/1/1 38/1/1
f 41/1/1 39/1/1 40/1/1
f 44/2/1 43/2/1 42/2/1
f 45/2/1 43/2/1 44/2/1
f 46/2/2 47/2/2 48/2/2
f 48/2/2 47/2/2 49/2/2
f 50/5/2 51/5/2 52/5/2
f 52/5/2 51/5/2 53/5/2
f 52/2/2 53/2/2 54/2/2
f 54/2/2 53/2/2 55/2/2
f 56/1/2 57/1/2 58/1/2
f 58/1/2 57/1/2 59/1/2
f 60/1/2 61/1/2 63/1/2
f 63/1/2 61/1/2 64/1/2
f 64/1/2 61/1/2 65/1/2
f 63/1/2 64/1/2 66/1/2
f 64/3/2 65/3/2 67/3/2
f 66/1/2 64/1/2 67/1/2
f 67/3/2 65/3/2 68/3/2
f 68/3/2 65/3/2 69/3/2
f 62/5/2 63/5/2 70/5/2
f 63/1/2 66/1/2 71/1/2
f 70/5/2 63/5/2 71/5/2
f 71/1/2 66/1/2 72/1/2
f 72/1/2 66/1/2 73/1/2
f 68/1/2 69/1/2 75/1/2
f 75/1/2 69/1/2 76/1/2
f 73/1/2 74/1/2 77/1/2
f 77/1/2 74/1/2 78/1/2
f 81/2/2 82/2/2 83/2/2
f 83/2/2 82/2/2 84/2/2
f 79/1/2 80/1/2 85/1/2
f 85/1/2 80/1/2 86/1/2
f 86/1/2 80/1/2 87/1/2
f 87/1/2 80/1/2 88/1/2
f 86/1/2 87/1/2 89/1/2
f 89/1/2 87/1/2 90/1/2
f 94/2/3 92/2/3 91/2/3
f 95/5/3 94/5/3 93/5/3
f 96/2/3 92/2/3 94/2/3
f 96/5/3 94/5/3 95/5/3
f 97/2/3 92/2/3 96/2/3
f 98/5/3 95/5/3 93/5/3
f 99/2/3 96/2/3 95/2/3
f 99/5/3 95/5/3 98/5/3
f 100/2/3 96/2/3 99/2/3
f 104/5/3 102/5/3 101/5/3
f 104/2/3 103/2/3 102/2/3
f 105/2/3 103/2/3 104/2/3
f 107/5/3 105/5/3 104/5/3
f 107/5/3 104/5/3 101/5/3
f 108/2/3 106/2/3 105/2/3
f 108/5/3 105/5/3 107/5/3
f 109/2/3 106/2/3 108/2/3
f 110/2/3 106/2/3 109/2/3
f 113/1/3 112/1/3 111/1/3
f 114/1/3 112/1/3 113/1/3
f 115/1/3 112/1/3 114/1/3
f 118/4/3 114/4/3 113/4/3
f 118/5/3 115/5/3 114/5/3
f 119/5/3 115/5/3 118/5/3
f 121/1/3 117/1/3 116/1/3
f 122/4/3 118/4/3 113/4/3
f 122/4/3 119/4/3 118/4/3
f 123/1/3 120/1/3 119/1/3
f 123/4/3 119/4/3 122/4/3
f 123/1/3 121/1/3 120/1/3
f 124/1/3 121/1/3 123/1/3
f 125/1/3 117/1/3 121/1/3
f 125/1/3 121/1/3 124/1/3
f 126/4/3 122/4/3 113/4/3
f 127/5/3 123/5/3 122/5/3
f 127/4/3 122/4/3 126/4/3
f 128/5/3 123/5/3 127/5/3
f 129/1/3 117/1/3 125/1/3
f 130/1/3 117/1/3 129/1/3
f 131/1/3 128/1/3 127/1/3
f 131/1/3 127/1/3 126/1/3
f 132/1/3 128/1/3 131/1/3
f 135/1/3 134/1/3 133/1/3
f 136/1/3 134/1/3 135/1/3
f 138/1/3 137/1/3 136/1/3
f 139/1/3 137/1/3 138/1/3
f 143/1/3 141/1/3 140/1/3
f 144/1/3 141/1/3 143/1/3
f 145/1/3 143/1/3 142/1/3
f 146/1/3 143/1/3 145/1/3
f 149/1/3 148/1/3 147/1/3
f 150/1/3 148/1/3 149/1/3
f 153/1/3 152/1/3 151/1/3
f 154/1/3 152/1/3 153/1/3
f 155/2/4 156/2/4 157/2/4
f 157/2/4 156/2/4 158/2/4
f 159/2/4 160/2/4 161/2/4
f 161/2/4 160/2/4 162/2/4
f 163/1/4 164/1/4 165/1/4
f 165/1/4 164/1/4 166/1/4
f 167/1/4 168/1/4 169/1/4
f 169/1/4 168/1/4 170/1/4
f 171/1/4 172/1/4 173/1/4
f 173/1/4 172/1/4 174/1/4
f 175/1/4 176/1/4 177/1/4
f 177/1/4 176/1/4 178/1/4
f 179/1/4 180/1/4 183/1/4
f 180/3/4 181/3/4 183/3/4
f 181/1/4 182/1/4 184/1/4
f 183/3/4 181/3/4 184/3/4
f 179/1/4 183/1/4 185/1/4
f 183/1/4 184/1/4 185/1/4
f 184/1/4 182/1/4 186/1/4
f 185/1/4 184/1/4 186/1/4
f 179/1/4 185/1/4 187/1/4
f 185/3/4 186/3/4 188/3/4
f 187/1/4 185/1/4 188/1/4
f 186/1/4 182/1/4 189/1/4
f 188/3/4 186/3/4 189/3/4
f 189/1/4 182/1/4 190/1/4
f 195/1/5 192/1/5 191/1/5
f 195/4/5 193/4/5 192/4/5
f 196/1/5 194/1/5 193/1/5
f 196/4/5 193/4/5 195/4/5
f 197/1/5 195/1/5 191/1/5
f 197/1/5 196/1/5 195/1/5
f 198/1/5 194/1/5 196/1/5
f 198/1/5 196/1/5 197/1/5
f 203/5/5 200/5/5 199/5/5
f 204/5/5 200/5/5 203/5/5
f 205/5/5 200/5/5 204/5/5
f 206/5/5 202/5/5 201/5/5
f 207/5/5 202/5/5 206/5/5
f 208/5/5 202/5/5 207/5/5
f 213/1/5 210/1/5 209/1/5
f 214/1/5 212/1/5 211/1/5
f 215/1/5 213/1/5 209/1/5
f 216/1/5 213/1/5 215/1/5
f 217/1/5 212/1/5 214/1/5
f 218/1/5 212/1/5 217/1/5
f 223/2/5 220/2/5 219/2/5
f 224/2/5 220/2/5 223/2/5
f 225/2/5 222/2/5 221/2/5
f 226/2/5 222/2/5 225/2/5
f 227/2/6 228/2/6 231/2/6
f 231/2/6 228/2/6 232/2/6
f 229/2/6 230/2/6 233/2/6
f 233/2/6 230/2/6 234/2/6
f 235/2/6 236/2/6 239/2/6
f 239/2/6 236/2/6 240/2/6
f 240/2/6 236/2/6 241/2/6
f 237/2/6 238/2/6 242/2/6
f 242/2/6 238/2/6 243/2/6
f 243/2/6 238/2/6 244/2/6
f 240/1/6 241/1/6 246/1/6
f 242/1/6 243/1/6 246/1/6
f 241/1/6 242/1/6 246/1/6
f 246/1/6 243/1/6 247/1/6
f 247/1/6 243/1/6 248/1/6
f 248/1/6 243/1/6 249/1/6
f 245/1/6 246/1/6 251/1/6
f 251/1/6 246/1/6 252/1/6
f 249/1/6 250/1/6 253/1/6
f 253/1/6 250/1/6 254/1/6
f 247/1/6 248/1/6 256/1/6
f 256/1/6 248/1/6 257/1/6
f 255/1/6 256/1/6 259/1/6
f 257/1/6 258/1/6 259/1/6
f 256/1/6 257/1/6 259/1/6
f 259/1/6 258/1/6 260/1/6
f 260/1/6 258/1/6 261/1/6
f 261/1/6 258/1/6 262/1/6
f 260/1/6 261/1/6 263/1/6
f 263/1/6 261/1/6 264/1/6
f 265/1/6 266/1/6 270/1/6
f 267/1/6 268/1/6 271/1/6
f 269/1/6 270/1/6 273/1/6
f 270/1/6 266/1/6 274/1/6
f 273/1/6 270/1/6 274/1/6
f 271/1/6 272/1/6 275/1/6
f 267/1/6 271/1/6 275/1/6
f 275/1/6 272/1/6 276/1/6
