# MagicaVoxel @ Ephtracy

# group
o 

# material
mtllib espada_1.mtl
usemtl palette

# normals
vn -1 0 0
vn 1 0 0
vn 0 0 1
vn 0 0 -1
vn 0 -1 0
vn 0 1 0

# texcoords
vt 0.822266 0.5
vt 0.833984 0.5
vt 0.888672 0.5

# verts
v -0.2 0.1 0.1
v -0.2 0.1 0
v -0.2 0.2 0.1
v -0.2 0.2 0
v -0.1 0 0.1
v -0.1 0 0
v -0.1 0.1 0.1
v -0.1 0.1 0
v -0.1 0.2 0.1
v -0.1 0.2 0
v -0.1 0.8 0.1
v -0.1 0.8 0
v 0.1 0 0.1
v 0.1 0 0
v 0.1 0.1 0.1
v 0.1 0.1 0
v 0.1 0.2 0.1
v 0.1 0.2 0
v 0.1 0.8 0.1
v 0.1 0.8 0
v 0.2 0.1 0.1
v 0.2 0.1 0
v 0.2 0.2 0.1
v 0.2 0.2 0
v -0.2 0.1 0.1
v -0.2 0.2 0.1
v -0.1 0 0.1
v -0.1 0.1 0.1
v -0.1 0.2 0.1
v -0.1 0.8 0.1
v 0.1 0 0.1
v 0.1 0.1 0.1
v 0.1 0.2 0.1
v 0.1 0.8 0.1
v 0.2 0.1 0.1
v 0.2 0.2 0.1
v -0.2 0.1 0
v -0.2 0.2 0
v -0.1 0 0
v -0.1 0.1 0
v -0.1 0.2 0
v -0.1 0.8 0
v 0.1 0 0
v 0.1 0.1 0
v 0.1 0.2 0
v 0.1 0.8 0
v 0.2 0.1 0
v 0.2 0.2 0
v -0.1 0 0.1
v 0.1 0 0.1
v -0.1 0 0
v 0.1 0 0
v -0.2 0.1 0.1
v -0.1 0.1 0.1
v 0.1 0.1 0.1
v 0.2 0.1 0.1
v -0.2 0.1 0
v -0.1 0.1 0
v 0.1 0.1 0
v 0.2 0.1 0
v -0.2 0.2 0.1
v -0.1 0.2 0.1
v 0.1 0.2 0.1
v 0.2 0.2 0.1
v -0.2 0.2 0
v -0.1 0.2 0
v 0.1 0.2 0
v 0.2 0.2 0
v -0.1 0.8 0.1
v 0.1 0.8 0.1
v -0.1 0.8 0
v 0.1 0.8 0

# faces
f 3/2/1 2/2/1 1/2/1
f 4/2/1 2/2/1 3/2/1
f 7/1/1 6/1/1 5/1/1
f 8/1/1 6/1/1 7/1/1
f 11/3/1 10/3/1 9/3/1
f 12/3/1 10/3/1 11/3/1
f 13/1/2 14/1/2 15/1/2
f 15/1/2 14/1/2 16/1/2
f 17/3/2 18/3/2 19/3/2
f 19/3/2 18/3/2 20/3/2
f 21/2/2 22/2/2 23/2/2
f 23/2/2 22/2/2 24/2/2
f 28/2/3 26/2/3 25/2/3
f 29/2/3 26/2/3 28/2/3
f 31/1/3 28/1/3 27/1/3
f 32/2/3 29/2/3 28/2/3
f 32/1/3 28/1/3 31/1/3
f 33/3/3 30/3/3 29/3/3
f 33/2/3 29/2/3 32/2/3
f 34/3/3 30/3/3 33/3/3
f 35/2/3 33/2/3 32/2/3
f 36/2/3 33/2/3 35/2/3
f 37/2/4 38/2/4 40/2/4
f 40/2/4 38/2/4 41/2/4
f 39/1/4 40/1/4 43/1/4
f 40/2/4 41/2/4 44/2/4
f 43/1/4 40/1/4 44/1/4
f 41/3/4 42/3/4 45/3/4
f 44/2/4 41/2/4 45/2/4
f 45/3/4 42/3/4 46/3/4
f 44/2/4 45/2/4 47/2/4
f 47/2/4 45/2/4 48/2/4
f 51/1/5 50/1/5 49/1/5
f 52/1/5 50/1/5 51/1/5
f 57/2/5 54/2/5 53/2/5
f 58/2/5 54/2/5 57/2/5
f 59/2/5 56/2/5 55/2/5
f 60/2/5 56/2/5 59/2/5
f 61/2/6 62/2/6 65/2/6
f 65/2/6 62/2/6 66/2/6
f 63/2/6 64/2/6 67/2/6
f 67/2/6 64/2/6 68/2/6
f 69/3/6 70/3/6 71/3/6
f 71/3/6 70/3/6 72/3/6
