# MagicaVoxel @ Ephtracy

# group
o 

# material
mtllib water_quina_1.mtl
usemtl palette

# normals
vn -1 0 0
vn 1 0 0
vn 0 0 1
vn 0 0 -1
vn 0 -1 0
vn 0 1 0

# texcoords
vt 0.884766 0.5
vt 0.888672 0.5
vt 0.892578 0.5
vt 0.896484 0.5

# verts
v -4 0 4
v -4 0 -4
v -4 0.8 4
v -4 0.8 -4
v 4 0 4
v 4 0 3.8
v 4 0 3.6
v 4 0 3.4
v 4 0 -4
v 4 0.8 4
v 4 0.8 3.8
v 4 0.8 3.6
v 4 0.8 3.4
v 4 0.8 -4
v -4 0 4
v -4 0.8 4
v 3.4 0 4
v 3.4 0.8 4
v 3.6 0 4
v 3.6 0.8 4
v 3.8 0 4
v 3.8 0.8 4
v 4 0 4
v 4 0.8 4
v -4 0 -4
v -4 0.8 -4
v 4 0 -4
v 4 0.8 -4
v -4 0 4
v 3.4 0 4
v 3.6 0 4
v 3.8 0 4
v 4 0 4
v 3.6 0 3.8
v 3.8 0 3.8
v 4 0 3.8
v 3.6 0 3.6
v 4 0 3.6
v 3.4 0 3.4
v 4 0 3.4
v -4 0 -4
v 4 0 -4
v -4 0.8 4
v 3.4 0.8 4
v 3.6 0.8 4
v 3.8 0.8 4
v 4 0.8 4
v 3.6 0.8 3.8
v 3.8 0.8 3.8
v 4 0.8 3.8
v 3.6 0.8 3.6
v 4 0.8 3.6
v 3.4 0.8 3.4
v 4 0.8 3.4
v -4 0.8 -4
v 4 0.8 -4

# faces
f 3/1/1 2/1/1 1/1/1
f 4/1/1 2/1/1 3/1/1
f 5/2/2 6/2/2 10/2/2
f 6/4/2 7/4/2 11/4/2
f 10/2/2 6/2/2 11/2/2
f 7/3/2 8/3/2 12/3/2
f 11/4/2 7/4/2 12/4/2
f 8/1/2 9/1/2 13/1/2
f 12/3/2 8/3/2 13/3/2
f 13/1/2 9/1/2 14/1/2
f 17/1/3 16/1/3 15/1/3
f 18/1/3 16/1/3 17/1/3
f 19/3/3 18/3/3 17/3/3
f 20/3/3 18/3/3 19/3/3
f 21/1/3 20/1/3 19/1/3
f 22/1/3 20/1/3 21/1/3
f 23/2/3 22/2/3 21/2/3
f 24/2/3 22/2/3 23/2/3
f 25/1/4 26/1/4 27/1/4
f 27/1/4 26/1/4 28/1/4
f 34/3/5 31/3/5 30/3/5
f 34/1/5 32/1/5 31/1/5
f 35/2/5 33/2/5 32/2/5
f 35/1/5 32/1/5 34/1/5
f 36/2/5 33/2/5 35/2/5
f 37/3/5 34/3/5 30/3/5
f 37/4/5 35/4/5 34/4/5
f 37/4/5 36/4/5 35/4/5
f 38/4/5 36/4/5 37/4/5
f 39/1/5 30/1/5 29/1/5
f 39/3/5 37/3/5 30/3/5
f 39/3/5 38/3/5 37/3/5
f 40/3/5 38/3/5 39/3/5
f 41/1/5 39/1/5 29/1/5
f 41/1/5 40/1/5 39/1/5
f 42/1/5 40/1/5 41/1/5
f 44/3/6 45/3/6 48/3/6
f 45/1/6 46/1/6 48/1/6
f 46/2/6 47/2/6 49/2/6
f 48/1/6 46/1/6 49/1/6
f 49/2/6 47/2/6 50/2/6
f 44/3/6 48/3/6 51/3/6
f 48/4/6 49/4/6 51/4/6
f 49/4/6 50/4/6 51/4/6
f 51/4/6 50/4/6 52/4/6
f 43/1/6 44/1/6 53/1/6
f 44/3/6 51/3/6 53/3/6
f 51/3/6 52/3/6 53/3/6
f 53/3/6 52/3/6 54/3/6
f 43/1/6 53/1/6 55/1/6
f 53/1/6 54/1/6 55/1/6
f 55/1/6 54/1/6 56/1/6
