# MagicaVoxel @ Ephtracy

# group
o 

# material
mtllib maca.mtl
usemtl palette

# normals
vn -1 0 0
vn 1 0 0
vn 0 0 1
vn 0 0 -1
vn 0 -1 0
vn 0 1 0

# texcoords
vt 0.970703 0.5
vt 0.974609 0.5
vt 0.978516 0.5

# verts
v -0.3 0 0.3
v -0.3 0 -0.3
v -0.3 0.2 0.1
v -0.3 0.2 -0.1
v -0.3 0.4 0.1
v -0.3 0.4 -0.1
v -0.3 0.5 0.3
v -0.3 0.5 -0.3
v -0.1 0.5 0.1
v -0.1 0.5 0
v -0.1 0.6 0.1
v -0.1 0.6 0
v 0 0.5 0
v 0 0.5 -0.1
v 0 0.6 0
v 0 0.6 -0.1
v 0.1 0.5 0.1
v 0.1 0.5 -0.1
v 0.1 0.6 0.1
v 0.1 0.6 -0.1
v 0.3 0 0.3
v 0.3 0 -0.3
v 0.3 0.1 0
v 0.3 0.1 -0.2
v 0.3 0.2 0.2
v 0.3 0.2 0.1
v 0.3 0.3 0.2
v 0.3 0.3 0.1
v 0.3 0.3 0
v 0.3 0.3 -0.2
v 0.3 0.5 0.3
v 0.3 0.5 -0.3
v -0.3 0 0.3
v -0.3 0.5 0.3
v -0.2 0.1 0.3
v -0.2 0.2 0.3
v -0.1 0.1 0.3
v -0.1 0.2 0.3
v 0 0.2 0.3
v 0 0.4 0.3
v 0.2 0.2 0.3
v 0.2 0.4 0.3
v 0.3 0 0.3
v 0.3 0.5 0.3
v -0.1 0.5 0.1
v -0.1 0.6 0.1
v 0.1 0.5 0.1
v 0.1 0.6 0.1
v -0.1 0.5 0
v -0.1 0.6 0
v 0 0.5 0
v 0 0.6 0
v 0 0.5 -0.1
v 0 0.6 -0.1
v 0.1 0.5 -0.1
v 0.1 0.6 -0.1
v -0.3 0 -0.3
v -0.3 0.5 -0.3
v -0.2 0.1 -0.3
v -0.2 0.3 -0.3
v 0 0.1 -0.3
v 0 0.3 -0.3
v 0.1 0.3 -0.3
v 0.1 0.4 -0.3
v 0.2 0.3 -0.3
v 0.2 0.4 -0.3
v 0.3 0 -0.3
v 0.3 0.5 -0.3
v -0.3 0 0.3
v 0.3 0 0.3
v -0.3 0 -0.3
v 0.3 0 -0.3
v -0.3 0.5 0.3
v 0.3 0.5 0.3
v -0.1 0.5 0.1
v 0.1 0.5 0.1
v -0.1 0.5 0
v 0 0.5 0
v -0.2 0.5 -0.1
v -0.1 0.5 -0.1
v 0 0.5 -0.1
v 0.1 0.5 -0.1
v -0.2 0.5 -0.2
v -0.1 0.5 -0.2
v -0.3 0.5 -0.3
v 0.3 0.5 -0.3
v -0.1 0.6 0.1
v 0.1 0.6 0.1
v -0.1 0.6 0
v 0 0.6 0
v 0 0.6 -0.1
v 0.1 0.6 -0.1

# faces
f 3/1/1 2/1/1 1/1/1
f 4/1/1 2/1/1 3/1/1
f 5/1/1 3/1/1 1/1/1
f 5/3/1 4/3/1 3/3/1
f 6/1/1 2/1/1 4/1/1
f 6/3/1 4/3/1 5/3/1
f 7/1/1 5/1/1 1/1/1
f 7/1/1 6/1/1 5/1/1
f 8/1/1 2/1/1 6/1/1
f 8/1/1 6/1/1 7/1/1
f 11/2/1 10/2/1 9/2/1
f 12/2/1 10/2/1 11/2/1
f 15/2/1 14/2/1 13/2/1
f 16/2/1 14/2/1 15/2/1
f 17/2/2 18/2/2 19/2/2
f 19/2/2 18/2/2 20/2/2
f 21/1/2 22/1/2 23/1/2
f 23/1/2 22/1/2 24/1/2
f 21/1/2 23/1/2 25/1/2
f 25/1/2 23/1/2 26/1/2
f 21/1/2 25/1/2 27/1/2
f 25/3/2 26/3/2 27/3/2
f 26/1/2 23/1/2 28/1/2
f 27/3/2 26/3/2 28/3/2
f 23/3/2 24/3/2 29/3/2
f 28/1/2 23/1/2 29/1/2
f 24/1/2 22/1/2 30/1/2
f 29/3/2 24/3/2 30/3/2
f 28/1/2 29/1/2 31/1/2
f 27/1/2 28/1/2 31/1/2
f 29/1/2 30/1/2 31/1/2
f 21/1/2 27/1/2 31/1/2
f 30/1/2 22/1/2 32/1/2
f 31/1/2 30/1/2 32/1/2
f 35/1/3 34/1/3 33/1/3
f 36/1/3 34/1/3 35/1/3
f 37/1/3 35/1/3 33/1/3
f 37/3/3 36/3/3 35/3/3
f 38/1/3 34/1/3 36/1/3
f 38/3/3 36/3/3 37/3/3
f 39/1/3 38/1/3 37/1/3
f 39/1/3 34/1/3 38/1/3
f 40/1/3 34/1/3 39/1/3
f 41/1/3 39/1/3 37/1/3
f 41/3/3 40/3/3 39/3/3
f 42/1/3 34/1/3 40/1/3
f 42/3/3 40/3/3 41/3/3
f 43/1/3 37/1/3 33/1/3
f 43/1/3 41/1/3 37/1/3
f 43/1/3 42/1/3 41/1/3
f 44/1/3 34/1/3 42/1/3
f 44/1/3 42/1/3 43/1/3
f 47/2/3 46/2/3 45/2/3
f 48/2/3 46/2/3 47/2/3
f 49/2/4 50/2/4 51/2/4
f 51/2/4 50/2/4 52/2/4
f 53/2/4 54/2/4 55/2/4
f 55/2/4 54/2/4 56/2/4
f 57/1/4 58/1/4 59/1/4
f 59/1/4 58/1/4 60/1/4
f 57/1/4 59/1/4 61/1/4
f 59/3/4 60/3/4 61/3/4
f 60/1/4 58/1/4 62/1/4
f 61/3/4 60/3/4 62/3/4
f 61/1/4 62/1/4 63/1/4
f 62/1/4 58/1/4 63/1/4
f 63/1/4 58/1/4 64/1/4
f 61/1/4 63/1/4 65/1/4
f 63/3/4 64/3/4 65/3/4
f 64/1/4 58/1/4 66/1/4
f 65/3/4 64/3/4 66/3/4
f 57/1/4 61/1/4 67/1/4
f 61/1/4 65/1/4 67/1/4
f 65/1/4 66/1/4 67/1/4
f 66/1/4 58/1/4 68/1/4
f 67/1/4 66/1/4 68/1/4
f 71/1/5 70/1/5 69/1/5
f 72/1/5 70/1/5 71/1/5
f 73/1/6 74/1/6 75/1/6
f 75/1/6 74/1/6 76/1/6
f 73/1/6 75/1/6 77/1/6
f 73/1/6 77/1/6 79/1/6
f 77/1/6 78/1/6 79/1/6
f 79/1/6 78/1/6 80/1/6
f 80/1/6 78/1/6 81/1/6
f 76/1/6 74/1/6 82/1/6
f 73/1/6 79/1/6 83/1/6
f 79/3/6 80/3/6 83/3/6
f 80/1/6 81/1/6 84/1/6
f 83/3/6 80/3/6 84/3/6
f 81/1/6 82/1/6 84/1/6
f 73/1/6 83/1/6 85/1/6
f 83/1/6 84/1/6 85/1/6
f 84/1/6 82/1/6 86/1/6
f 85/1/6 84/1/6 86/1/6
f 82/1/6 74/1/6 86/1/6
f 87/2/6 88/2/6 89/2/6
f 89/2/6 88/2/6 90/2/6
f 90/2/6 88/2/6 91/2/6
f 91/2/6 88/2/6 92/2/6
