# MagicaVoxel @ Ephtracy

# group
o 

# material
mtllib braco_esquerdo.mtl
usemtl palette

# normals
vn -1 0 0
vn 1 0 0
vn 0 0 1
vn 0 0 -1
vn 0 -1 0
vn 0 1 0

# texcoords
vt 0.958984 0.5
vt 0.962891 0.5
vt 0.974609 0.5

# verts
v -1.4 2.8 0.2
v -1.4 2.8 -0.2
v -1.4 3 0.2
v -1.4 3 0.1
v -1.4 3.1 0.3
v -1.4 3.1 0.2
v -1.4 3.1 -0.0999999
v -1.4 3.1 -0.2
v -1.4 3.2 0.3
v -1.4 3.2 0.2
v -1.4 3.3 -0.0999999
v -1.4 3.3 -0.2
v -1.4 3.5 0.2
v -1.4 3.5 0.1
v -1.4 3.6 0.2
v -1.4 3.6 -0.2
v -1.3 3.1 0.3
v -1.3 3.1 0.2
v -1.3 3.2 0.3
v -1.3 3.2 0.2
v -1 2.8 0.2
v -1 2.8 -0.2
v -1 3.6 0.2
v -1 3.6 -0.2
v -1.4 3.1 0.3
v -1.4 3.2 0.3
v -1.3 3.1 0.3
v -1.3 3.2 0.3
v -1.4 2.8 0.2
v -1.4 3 0.2
v -1.4 3.1 0.2
v -1.4 3.2 0.2
v -1.4 3.5 0.2
v -1.4 3.6 0.2
v -1.3 2.9 0.2
v -1.3 3 0.2
v -1.3 3.1 0.2
v -1.3 3.2 0.2
v -1.3 3.5 0.2
v -1.2 2.9 0.2
v -1.2 3.2 0.2
v -1 2.8 0.2
v -1 3.6 0.2
v -1.4 2.8 -0.2
v -1.4 3.1 -0.2
v -1.4 3.3 -0.2
v -1.4 3.6 -0.2
v -1.3 3.1 -0.2
v -1.3 3.3 -0.2
v -1 2.8 -0.2
v -1 3.6 -0.2
v -1.4 2.8 0.2
v -1 2.8 0.2
v -1.4 2.8 -0.2
v -1 2.8 -0.2
v -1.4 3.1 0.3
v -1.3 3.1 0.3
v -1.4 3.1 0.2
v -1.3 3.1 0.2
v -1.4 3.2 0.3
v -1.3 3.2 0.3
v -1.4 3.2 0.2
v -1.3 3.2 0.2
v -1.4 3.6 0.2
v -1 3.6 0.2
v -1.4 3.6 -0.2
v -1 3.6 -0.2

# faces
f 3/3/1 2/3/1 1/3/1
f 4/3/1 2/3/1 3/3/1
f 6/1/1 4/1/1 3/1/1
f 7/3/1 2/3/1 4/3/1
f 8/3/1 2/3/1 7/3/1
f 9/2/1 6/2/1 5/2/1
f 10/1/1 4/1/1 6/1/1
f 10/2/1 6/2/1 9/2/1
f 11/3/1 7/3/1 4/3/1
f 11/1/1 8/1/1 7/1/1
f 12/1/1 8/1/1 11/1/1
f 13/1/1 4/1/1 10/1/1
f 14/3/1 11/3/1 4/3/1
f 14/1/1 4/1/1 13/1/1
f 14/3/1 12/3/1 11/3/1
f 15/3/1 14/3/1 13/3/1
f 16/3/1 12/3/1 14/3/1
f 16/3/1 14/3/1 15/3/1
f 17/2/2 18/2/2 19/2/2
f 19/2/2 18/2/2 20/2/2
f 21/3/2 22/3/2 23/3/2
f 23/3/2 22/3/2 24/3/2
f 27/2/3 26/2/3 25/2/3
f 28/2/3 26/2/3 27/2/3
f 35/3/3 30/3/3 29/3/3
f 36/1/3 31/1/3 30/1/3
f 36/3/3 30/3/3 35/3/3
f 37/1/3 31/1/3 36/1/3
f 38/1/3 33/1/3 32/1/3
f 39/3/3 34/3/3 33/3/3
f 39/1/3 33/1/3 38/1/3
f 40/1/3 38/1/3 37/1/3
f 40/3/3 35/3/3 29/3/3
f 40/1/3 37/1/3 36/1/3
f 40/1/3 36/1/3 35/1/3
f 41/3/3 39/3/3 38/3/3
f 41/1/3 38/1/3 40/1/3
f 42/3/3 40/3/3 29/3/3
f 42/3/3 41/3/3 40/3/3
f 43/3/3 34/3/3 39/3/3
f 43/3/3 41/3/3 42/3/3
f 43/3/3 39/3/3 41/3/3
f 44/3/4 45/3/4 48/3/4
f 45/1/4 46/1/4 48/1/4
f 46/3/4 47/3/4 49/3/4
f 48/1/4 46/1/4 49/1/4
f 44/3/4 48/3/4 50/3/4
f 48/3/4 49/3/4 50/3/4
f 49/3/4 47/3/4 51/3/4
f 50/3/4 49/3/4 51/3/4
f 54/3/5 53/3/5 52/3/5
f 55/3/5 53/3/5 54/3/5
f 58/2/5 57/2/5 56/2/5
f 59/2/5 57/2/5 58/2/5
f 60/2/6 61/2/6 62/2/6
f 62/2/6 61/2/6 63/2/6
f 64/3/6 65/3/6 66/3/6
f 66/3/6 65/3/6 67/3/6
