# MagicaVoxel @ Ephtracy

# group
o 

# material
mtllib braco_direito.mtl
usemtl palette

# normals
vn -1 0 0
vn 1 0 0
vn 0 0 1
vn 0 0 -1
vn 0 -1 0
vn 0 1 0

# texcoords
vt 0.958984 0.5
vt 0.962891 0.5
vt 0.974609 0.5

# verts
v 1 2.8 0.2
v 1 2.8 -0.2
v 1 3.6 0.2
v 1 3.6 -0.2
v 1.2 3.1 0.3
v 1.2 3.1 0.2
v 1.2 3.2 0.3
v 1.2 3.2 0.2
v 1.3 3.1 0.3
v 1.3 3.1 0.2
v 1.3 3.2 0.3
v 1.3 3.2 0.2
v 1.4 2.8 0.2
v 1.4 2.8 -0.2
v 1.4 3 8.9407e-08
v 1.4 3 -0.2
v 1.4 3.1 0.2
v 1.4 3.1 0.1
v 1.4 3.2 8.9407e-08
v 1.4 3.2 -0.0999999
v 1.4 3.3 8.9407e-08
v 1.4 3.3 -0.0999999
v 1.4 3.4 0.2
v 1.4 3.4 0.1
v 1.4 3.5 8.9407e-08
v 1.4 3.5 -0.2
v 1.4 3.6 0.2
v 1.4 3.6 -0.2
v 1.5 3.2 8.9407e-08
v 1.5 3.2 -0.0999999
v 1.5 3.3 8.9407e-08
v 1.5 3.3 -0.0999999
v 1.2 3.1 0.3
v 1.2 3.2 0.3
v 1.3 3.1 0.3
v 1.3 3.2 0.3
v 1 2.8 0.2
v 1 3.6 0.2
v 1.1 2.9 0.2
v 1.1 3.4 0.2
v 1.2 3.1 0.2
v 1.2 3.2 0.2
v 1.2 3.3 0.2
v 1.2 3.4 0.2
v 1.3 2.9 0.2
v 1.3 3.1 0.2
v 1.3 3.2 0.2
v 1.3 3.3 0.2
v 1.3 3.4 0.2
v 1.4 2.8 0.2
v 1.4 3.1 0.2
v 1.4 3.4 0.2
v 1.4 3.6 0.2
v 1.4 3.2 8.9407e-08
v 1.4 3.3 8.9407e-08
v 1.5 3.2 8.9407e-08
v 1.5 3.3 8.9407e-08
v 1.4 3.2 -0.0999999
v 1.4 3.3 -0.0999999
v 1.5 3.2 -0.0999999
v 1.5 3.3 -0.0999999
v 1 2.8 -0.2
v 1 3.6 -0.2
v 1.3 3 -0.2
v 1.3 3.5 -0.2
v 1.4 2.8 -0.2
v 1.4 3 -0.2
v 1.4 3.5 -0.2
v 1.4 3.6 -0.2
v 1 2.8 0.2
v 1.4 2.8 0.2
v 1 2.8 -0.2
v 1.4 2.8 -0.2
v 1.2 3.1 0.3
v 1.3 3.1 0.3
v 1.2 3.1 0.2
v 1.3 3.1 0.2
v 1.4 3.2 8.9407e-08
v 1.5 3.2 8.9407e-08
v 1.4 3.2 -0.0999999
v 1.5 3.2 -0.0999999
v 1.2 3.2 0.3
v 1.3 3.2 0.3
v 1.2 3.2 0.2
v 1.3 3.2 0.2
v 1.4 3.3 8.9407e-08
v 1.5 3.3 8.9407e-08
v 1.4 3.3 -0.0999999
v 1.5 3.3 -0.0999999
v 1 3.6 0.2
v 1.4 3.6 0.2
v 1 3.6 -0.2
v 1.4 3.6 -0.2

# faces
f 3/3/1 2/3/1 1/3/1
f 4/3/1 2/3/1 3/3/1
f 7/2/1 6/2/1 5/2/1
f 8/2/1 6/2/1 7/2/1
f 9/2/2 10/2/2 11/2/2
f 11/2/2 10/2/2 12/2/2
f 13/3/2 14/3/2 15/3/2
f 15/3/2 14/3/2 16/3/2
f 13/3/2 15/3/2 17/3/2
f 17/3/2 15/3/2 18/3/2
f 15/1/2 16/1/2 19/1/2
f 18/3/2 15/3/2 19/3/2
f 19/1/2 16/1/2 20/1/2
f 18/3/2 19/3/2 21/3/2
f 20/1/2 16/1/2 22/1/2
f 17/1/2 18/1/2 23/1/2
f 18/3/2 21/3/2 24/3/2
f 23/1/2 18/1/2 24/1/2
f 21/1/2 22/1/2 25/1/2
f 24/3/2 21/3/2 25/3/2
f 23/3/2 24/3/2 25/3/2
f 22/1/2 16/1/2 26/1/2
f 25/1/2 22/1/2 26/1/2
f 23/3/2 25/3/2 27/3/2
f 25/3/2 26/3/2 27/3/2
f 27/3/2 26/3/2 28/3/2
f 29/2/2 30/2/2 31/2/2
f 31/2/2 30/2/2 32/2/2
f 35/2/3 34/2/3 33/2/3
f 36/2/3 34/2/3 35/2/3
f 39/3/3 38/3/3 37/3/3
f 40/3/3 38/3/3 39/3/3
f 41/1/3 40/1/3 39/1/3
f 42/1/3 40/1/3 41/1/3
f 43/1/3 40/1/3 42/1/3
f 44/3/3 38/3/3 40/3/3
f 44/1/3 40/1/3 43/1/3
f 45/3/3 39/3/3 37/3/3
f 45/1/3 41/1/3 39/1/3
f 46/1/3 41/1/3 45/1/3
f 47/1/3 43/1/3 42/1/3
f 48/3/3 44/3/3 43/3/3
f 48/1/3 43/1/3 47/1/3
f 49/3/3 38/3/3 44/3/3
f 49/3/3 44/3/3 48/3/3
f 50/3/3 46/3/3 45/3/3
f 50/3/3 45/3/3 37/3/3
f 51/1/3 48/1/3 47/1/3
f 51/3/3 46/3/3 50/3/3
f 51/1/3 47/1/3 46/1/3
f 51/1/3 49/1/3 48/1/3
f 52/3/3 38/3/3 49/3/3
f 52/1/3 49/1/3 51/1/3
f 53/3/3 38/3/3 52/3/3
f 56/2/3 55/2/3 54/2/3
f 57/2/3 55/2/3 56/2/3
f 58/2/4 59/2/4 60/2/4
f 60/2/4 59/2/4 61/2/4
f 62/3/4 63/3/4 64/3/4
f 64/3/4 63/3/4 65/3/4
f 62/3/4 64/3/4 66/3/4
f 64/1/4 65/1/4 67/1/4
f 66/3/4 64/3/4 67/3/4
f 65/3/4 63/3/4 68/3/4
f 67/1/4 65/1/4 68/1/4
f 68/3/4 63/3/4 69/3/4
f 72/3/5 71/3/5 70/3/5
f 73/3/5 71/3/5 72/3/5
f 76/2/5 75/2/5 74/2/5
f 77/2/5 75/2/5 76/2/5
f 80/2/5 79/2/5 78/2/5
f 81/2/5 79/2/5 80/2/5
f 82/2/6 83/2/6 84/2/6
f 84/2/6 83/2/6 85/2/6
f 86/2/6 87/2/6 88/2/6
f 88/2/6 87/2/6 89/2/6
f 90/3/6 91/3/6 92/3/6
f 92/3/6 91/3/6 93/3/6
