# MagicaVoxel @ Ephtracy

# group
o 

# material
mtllib ombro_esquerdo.mtl
usemtl palette

# normals
vn -1 0 0
vn 1 0 0
vn 0 0 1
vn 0 0 -1
vn 0 -1 0
vn 0 1 0

# texcoords
vt 0.943359 0.5
vt 0.978516 0.5

# verts
v -1.6 3.7 0.3
v -1.6 3.7 -0.3
v -1.6 4.2 0.3
v -1.6 4.2 -0.3
v -1.5 3.6 0.4
v -1.5 3.6 -0.4
v -1.5 3.7 0.3
v -1.5 3.7 -0.3
v -1.5 4.2 0.3
v -1.5 4.2 -0.3
v -1.5 4.3 0.4
v -1.5 4.3 -0.4
v -1.4 3.7 0.5
v -1.4 3.7 0.4
v -1.4 3.7 -0.4
v -1.4 3.7 -0.5
v -1.4 4.2 0.5
v -1.4 4.2 0.4
v -1.4 4.2 -0.4
v -1.4 4.2 -0.5
v -1.4 4.3 0.3
v -1.4 4.3 -0.3
v -1.4 4.4 0.3
v -1.4 4.4 -0.3
v -1.1 4 0.5
v -1.1 4 0.4
v -1.1 4 -0.4
v -1.1 4 -0.5
v -1.1 4.2 0.5
v -1.1 4.2 0.4
v -1.1 4.2 -0.4
v -1.1 4.2 -0.5
v -1.1 4.3 0.4
v -1.1 4.3 0.3
v -1.1 4.3 -0.3
v -1.1 4.3 -0.4
v -1.1 4.4 0.3
v -1.1 4.4 -0.3
v -0.9 3.7 0.5
v -0.9 3.7 0.4
v -0.9 3.7 -0.4
v -0.9 3.7 -0.5
v -0.9 4 0.5
v -0.9 4 0.4
v -0.9 4 -0.4
v -0.9 4 -0.5
v -0.8 3.6 0.4
v -0.8 3.6 -0.4
v -0.8 4 0.4
v -0.8 4 -0.4
v -1.4 3.7 0.5
v -1.4 4.2 0.5
v -1.1 4 0.5
v -1.1 4.2 0.5
v -0.9 3.7 0.5
v -0.9 4 0.5
v -1.5 3.6 0.4
v -1.5 4.3 0.4
v -1.4 3.7 0.4
v -1.4 4.2 0.4
v -1.1 4.2 0.4
v -1.1 4.3 0.4
v -0.9 3.7 0.4
v -0.9 4 0.4
v -0.8 3.6 0.4
v -0.8 4 0.4
v -1.6 3.7 0.3
v -1.6 4.2 0.3
v -1.5 3.7 0.3
v -1.5 4.2 0.3
v -1.4 4.3 0.3
v -1.4 4.4 0.3
v -1.1 4.3 0.3
v -1.1 4.4 0.3
v -1.6 3.7 -0.3
v -1.6 4.2 -0.3
v -1.5 3.7 -0.3
v -1.5 4.2 -0.3
v -1.4 4.3 -0.3
v -1.4 4.4 -0.3
v -1.1 4.3 -0.3
v -1.1 4.4 -0.3
v -1.5 3.6 -0.4
v -1.5 4.3 -0.4
v -1.4 3.7 -0.4
v -1.4 4.2 -0.4
v -1.1 4.2 -0.4
v -1.1 4.3 -0.4
v -0.9 3.7 -0.4
v -0.9 4 -0.4
v -0.8 3.6 -0.4
v -0.8 4 -0.4
v -1.4 3.7 -0.5
v -1.4 4.2 -0.5
v -1.1 4 -0.5
v -1.1 4.2 -0.5
v -0.9 3.7 -0.5
v -0.9 4 -0.5
v -1.5 3.6 0.4
v -0.8 3.6 0.4
v -1.5 3.6 -0.4
v -0.8 3.6 -0.4
v -1.4 3.7 0.5
v -0.9 3.7 0.5
v -1.4 3.7 0.4
v -0.9 3.7 0.4
v -1.6 3.7 0.3
v -1.5 3.7 0.3
v -1.6 3.7 -0.3
v -1.5 3.7 -0.3
v -1.4 3.7 -0.4
v -0.9 3.7 -0.4
v -1.4 3.7 -0.5
v -0.9 3.7 -0.5
v -1.1 4 0.5
v -0.9 4 0.5
v -1.1 4 0.4
v -0.9 4 0.4
v -0.8 4 0.4
v -1.1 4 -0.4
v -0.9 4 -0.4
v -0.8 4 -0.4
v -1.1 4 -0.5
v -0.9 4 -0.5
v -1.4 4.2 0.5
v -1.1 4.2 0.5
v -1.4 4.2 0.4
v -1.1 4.2 0.4
v -1.6 4.2 0.3
v -1.5 4.2 0.3
v -1.6 4.2 -0.3
v -1.5 4.2 -0.3
v -1.4 4.2 -0.4
v -1.1 4.2 -0.4
v -1.4 4.2 -0.5
v -1.1 4.2 -0.5
v -1.5 4.3 0.4
v -1.1 4.3 0.4
v -1.4 4.3 0.3
v -1.1 4.3 0.3
v -1.4 4.3 -0.3
v -1.1 4.3 -0.3
v -1.5 4.3 -0.4
v -1.1 4.3 -0.4
v -1.4 4.4 0.3
v -1.1 4.4 0.3
v -1.4 4.4 -0.3
v -1.1 4.4 -0.3

# faces
f 3/1/1 2/1/1 1/1/1
f 4/1/1 2/1/1 3/1/1
f 7/2/1 6/2/1 5/2/1
f 8/2/1 6/2/1 7/2/1
f 9/2/1 7/2/1 5/2/1
f 10/2/1 6/2/1 8/2/1
f 11/2/1 9/2/1 5/2/1
f 11/2/1 10/2/1 9/2/1
f 12/2/1 6/2/1 10/2/1
f 12/2/1 10/2/1 11/2/1
f 17/1/1 14/1/1 13/1/1
f 18/1/1 14/1/1 17/1/1
f 19/1/1 16/1/1 15/1/1
f 20/1/1 16/1/1 19/1/1
f 23/1/1 22/1/1 21/1/1
f 24/1/1 22/1/1 23/1/1
f 25/1/2 26/1/2 29/1/2
f 26/2/2 27/2/2 30/2/2
f 29/1/2 26/1/2 30/1/2
f 27/1/2 28/1/2 31/1/2
f 30/2/2 27/2/2 31/2/2
f 31/1/2 28/1/2 32/1/2
f 30/2/2 31/2/2 33/2/2
f 33/2/2 31/2/2 34/2/2
f 34/2/2 31/2/2 35/2/2
f 35/2/2 31/2/2 36/2/2
f 34/1/2 35/1/2 37/1/2
f 37/1/2 35/1/2 38/1/2
f 39/1/2 40/1/2 43/1/2
f 43/1/2 40/1/2 44/1/2
f 41/1/2 42/1/2 45/1/2
f 45/1/2 42/1/2 46/1/2
f 47/2/2 48/2/2 49/2/2
f 49/2/2 48/2/2 50/2/2
f 53/1/3 52/1/3 51/1/3
f 54/1/3 52/1/3 53/1/3
f 55/1/3 53/1/3 51/1/3
f 56/1/3 53/1/3 55/1/3
f 59/2/3 58/2/3 57/2/3
f 60/2/3 58/2/3 59/2/3
f 61/2/3 58/2/3 60/2/3
f 62/2/3 58/2/3 61/2/3
f 63/2/3 59/2/3 57/2/3
f 65/2/3 63/2/3 57/2/3
f 65/2/3 64/2/3 63/2/3
f 66/2/3 64/2/3 65/2/3
f 69/1/3 68/1/3 67/1/3
f 70/1/3 68/1/3 69/1/3
f 73/1/3 72/1/3 71/1/3
f 74/1/3 72/1/3 73/1/3
f 75/1/4 76/1/4 77/1/4
f 77/1/4 76/1/4 78/1/4
f 79/1/4 80/1/4 81/1/4
f 81/1/4 80/1/4 82/1/4
f 83/2/4 84/2/4 85/2/4
f 85/2/4 84/2/4 86/2/4
f 86/2/4 84/2/4 87/2/4
f 87/2/4 84/2/4 88/2/4
f 83/2/4 85/2/4 89/2/4
f 83/2/4 89/2/4 91/2/4
f 89/2/4 90/2/4 91/2/4
f 91/2/4 90/2/4 92/2/4
f 93/1/4 94/1/4 95/1/4
f 95/1/4 94/1/4 96/1/4
f 93/1/4 95/1/4 97/1/4
f 97/1/4 95/1/4 98/1/4
f 101/2/5 100/2/5 99/2/5
f 102/2/5 100/2/5 101/2/5
f 105/1/5 104/1/5 103/1/5
f 106/1/5 104/1/5 105/1/5
f 109/1/5 108/1/5 107/1/5
f 110/1/5 108/1/5 109/1/5
f 113/1/5 112/1/5 111/1/5
f 114/1/5 112/1/5 113/1/5
f 115/1/6 116/1/6 117/1/6
f 117/1/6 116/1/6 118/1/6
f 117/2/6 118/2/6 120/2/6
f 118/2/6 119/2/6 120/2/6
f 120/2/6 119/2/6 121/2/6
f 121/2/6 119/2/6 122/2/6
f 120/1/6 121/1/6 123/1/6
f 123/1/6 121/1/6 124/1/6
f 125/1/6 126/1/6 127/1/6
f 127/1/6 126/1/6 128/1/6
f 129/1/6 130/1/6 131/1/6
f 131/1/6 130/1/6 132/1/6
f 133/1/6 134/1/6 135/1/6
f 135/1/6 134/1/6 136/1/6
f 137/2/6 138/2/6 139/2/6
f 139/2/6 138/2/6 140/2/6
f 137/2/6 139/2/6 141/2/6
f 137/2/6 141/2/6 143/2/6
f 141/2/6 142/2/6 143/2/6
f 143/2/6 142/2/6 144/2/6
f 145/1/6 146/1/6 147/1/6
f 147/1/6 146/1/6 148/1/6
