# MagicaVoxel @ Ephtracy

# group
o 

# material
mtllib rabo.mtl
usemtl palette

# normals
vn -1 0 0
vn 1 0 0
vn 0 0 1
vn 0 0 -1
vn 0 -1 0
vn 0 1 0

# texcoords
vt 0.958984 0.5
vt 0.962891 0.5
vt 0.974609 0.5
vt 0.978516 0.5

# verts
v -0.9 0.9 0.9
v -0.9 0.9 -0.9
v -0.9 1.1 0.8
v -0.9 1.1 0.6
v -0.9 1.1 -0.5
v -0.9 1.1 -0.6
v -0.9 1.2 0.9
v -0.9 1.2 0.8
v -0.9 1.2 0.6
v -0.9 1.2 0.5
v -0.9 1.2 -0.4
v -0.9 1.2 -0.5
v -0.9 1.2 -0.6
v -0.9 1.2 -0.9
v -0.9 1.4 0.5
v -0.9 1.4 0.4
v -0.9 1.4 -0.5
v -0.9 1.4 -0.6
v -0.9 1.5 0.9
v -0.9 1.5 0.8
v -0.9 1.5 0.4
v -0.9 1.5 -0.4
v -0.9 1.5 -0.5
v -0.9 1.5 -0.9
v -0.9 1.6 -0.2
v -0.9 1.6 -0.3
v -0.9 1.6 -0.4
v -0.9 1.6 -0.5
v -0.9 1.7 0.8
v -0.9 1.7 0.7
v -0.9 1.7 -0.2
v -0.9 1.7 -0.3
v -0.9 1.8 0.9
v -0.9 1.8 0.7
v -0.9 1.8 0.5
v -0.9 1.8 0.4
v -0.9 1.8 -0.9
v -0.9 2 0.7
v -0.9 2 0.5
v -0.9 2.1 0.9
v -0.9 2.1 -0.9
v -0.9 2.2 0.9
v -0.9 2.2 -0.9
v -0.8 0.6 0.8
v -0.8 0.6 -0.8
v -0.8 0.9 0.8
v -0.8 0.9 -0.8
v -0.8 2.2 0.8
v -0.8 2.2 -0.8
v -0.8 2.4 0.8
v -0.8 2.4 -0.8
v -0.5 1.3 1
v -0.5 1.3 0.9
v -0.5 1.4 1
v -0.5 1.4 0.9
v 0.7 1.3 1
v 0.7 1.3 0.9
v 0.7 1.5 1
v 0.7 1.5 0.9
v 0.8 1.6 1
v 0.8 1.6 0.9
v 0.8 1.7 1
v 0.8 1.7 0.9
v -0.4 1.3 1
v -0.4 1.3 0.9
v -0.4 1.4 1
v -0.4 1.4 0.9
v 0.8 0.6 0.8
v 0.8 0.6 -0.8
v 0.8 0.9 0.8
v 0.8 0.9 -0.8
v 0.8 1.3 1
v 0.8 1.3 0.9
v 0.8 1.5 1
v 0.8 1.5 0.9
v 0.8 2.2 0.8
v 0.8 2.2 -0.8
v 0.8 2.4 0.8
v 0.8 2.4 -0.8
v 0.9 0.9 0.9
v 0.9 0.9 -0.9
v 0.9 1 -0.5
v 0.9 1 -0.6
v 0.9 1.1 0.8
v 0.9 1.1 0.6
v 0.9 1.2 0.9
v 0.9 1.2 0.8
v 0.9 1.2 0.6
v 0.9 1.2 -0.5
v 0.9 1.2 -0.6
v 0.9 1.2 -0.7
v 0.9 1.2 -0.9
v 0.9 1.3 0.9
v 0.9 1.3 0.8
v 0.9 1.3 -0.4
v 0.9 1.3 -0.5
v 0.9 1.4 0.7
v 0.9 1.4 0.6
v 0.9 1.4 -0.7
v 0.9 1.4 -0.8
v 0.9 1.5 0.7
v 0.9 1.5 -0.3
v 0.9 1.5 -0.4
v 0.9 1.5 -0.8
v 0.9 1.5 -0.9
v 0.9 1.6 1
v 0.9 1.6 0.9
v 0.9 1.6 0.8
v 0.9 1.6 0.7
v 0.9 1.6 -0.7
v 0.9 1.6 -0.8
v 0.9 1.7 1
v 0.9 1.7 0.9
v 0.9 1.7 -0.3
v 0.9 1.7 -0.4
v 0.9 1.7 -0.5
v 0.9 1.7 -0.6
v 0.9 1.8 0.8
v 0.9 1.8 -0.4
v 0.9 1.8 -0.5
v 0.9 1.8 -0.6
v 0.9 1.8 -0.7
v 0.9 1.8 -0.9
v 0.9 1.9 0.9
v 0.9 1.9 0.8
v 0.9 2.1 0.9
v 0.9 2.1 -0.9
v 0.9 2.2 0.9
v 0.9 2.2 -0.9
v -0.5 1.3 1
v -0.5 1.4 1
v -0.4 1.3 1
v -0.4 1.4 1
v 0.7 1.3 1
v 0.7 1.5 1
v 0.8 1.3 1
v 0.8 1.5 1
v 0.8 1.6 1
v 0.8 1.7 1
v 0.9 1.6 1
v 0.9 1.7 1
v -0.9 0.9 0.9
v -0.9 1.2 0.9
v -0.9 1.5 0.9
v -0.9 1.8 0.9
v -0.9 2.1 0.9
v -0.9 2.2 0.9
v -0.5 1.3 0.9
v -0.5 1.4 0.9
v -0.5 1.5 0.9
v -0.5 1.6 0.9
v -0.4 1.1 0.9
v -0.4 1.2 0.9
v -0.4 1.3 0.9
v -0.4 1.4 0.9
v -0.4 1.5 0.9
v -0.4 1.6 0.9
v -0.3 1.1 0.9
v -0.3 1.2 0.9
v -0.3 1.4 0.9
v 0.6 0.9 0.9
v 0.6 1.2 0.9
v 0.6 1.5 0.9
v 0.7 0.9 0.9
v 0.7 1.1 0.9
v 0.7 1.3 0.9
v 0.7 1.5 0.9
v 0.7 1.7 0.9
v 0.8 1.1 0.9
v 0.8 1.2 0.9
v 0.8 1.3 0.9
v 0.8 1.5 0.9
v 0.8 1.6 0.9
v 0.8 1.7 0.9
v 0.8 1.8 0.9
v 0.8 1.9 0.9
v 0.9 0.9 0.9
v 0.9 1.2 0.9
v 0.9 1.3 0.9
v 0.9 1.6 0.9
v 0.9 1.7 0.9
v 0.9 1.9 0.9
v 0.9 2.1 0.9
v 0.9 2.2 0.9
v -0.8 0.6 0.8
v -0.8 0.9 0.8
v -0.8 2.2 0.8
v -0.8 2.4 0.8
v 0.6 0.9 0.8
v 0.7 0.9 0.8
v 0.8 0.6 0.8
v 0.8 0.9 0.8
v 0.8 2.2 0.8
v 0.8 2.4 0.8
v -0.8 0.6 -0.8
v -0.8 0.9 -0.8
v -0.8 2.2 -0.8
v -0.8 2.4 -0.8
v 0.8 0.6 -0.8
v 0.8 0.9 -0.8
v 0.8 2.2 -0.8
v 0.8 2.4 -0.8
v -0.9 0.9 -0.9
v -0.9 1.2 -0.9
v -0.9 1.5 -0.9
v -0.9 1.8 -0.9
v -0.9 2.1 -0.9
v -0.9 2.2 -0.9
v -0.2 1.3 -0.9
v -0.2 1.5 -0.9
v -0.2 1.6 -0.9
v -0.1 1.1 -0.9
v -0.1 1.2 -0.9
v -0.1 1.3 -0.9
v -0.1 1.6 -0.9
v -0.1 1.7 -0.9
v 0.1 1.5 -0.9
v 0.1 1.7 -0.9
v 0.2 1.1 -0.9
v 0.2 1.2 -0.9
v 0.2 1.5 -0.9
v 0.9 0.9 -0.9
v 0.9 1.2 -0.9
v 0.9 1.5 -0.9
v 0.9 1.8 -0.9
v 0.9 2.1 -0.9
v 0.9 2.2 -0.9
v -0.8 0.6 0.8
v 0.8 0.6 0.8
v -0.8 0.6 -0.8
v 0.8 0.6 -0.8
v -0.9 0.9 0.9
v 0.6 0.9 0.9
v 0.7 0.9 0.9
v 0.9 0.9 0.9
v -0.8 0.9 0.8
v 0.6 0.9 0.8
v 0.7 0.9 0.8
v 0.8 0.9 0.8
v -0.8 0.9 -0.8
v 0.8 0.9 -0.8
v -0.9 0.9 -0.9
v 0.9 0.9 -0.9
v -0.5 1.3 1
v -0.4 1.3 1
v 0.7 1.3 1
v 0.8 1.3 1
v -0.5 1.3 0.9
v -0.4 1.3 0.9
v 0.7 1.3 0.9
v 0.8 1.3 0.9
v 0.8 1.6 1
v 0.9 1.6 1
v 0.8 1.6 0.9
v 0.9 1.6 0.9
v -0.5 1.4 1
v -0.4 1.4 1
v -0.5 1.4 0.9
v -0.4 1.4 0.9
v 0.7 1.5 1
v 0.8 1.5 1
v 0.7 1.5 0.9
v 0.8 1.5 0.9
v 0.8 1.7 1
v 0.9 1.7 1
v 0.8 1.7 0.9
v 0.9 1.7 0.9
v -0.9 2.2 0.9
v 0.9 2.2 0.9
v -0.8 2.2 0.8
v 0.8 2.2 0.8
v -0.8 2.2 -0.8
v 0.8 2.2 -0.8
v -0.9 2.2 -0.9
v 0.9 2.2 -0.9
v -0.8 2.4 0.8
v 0.8 2.4 0.8
v -0.8 2.4 -0.8
v 0.8 2.4 -0.8

# faces
f 3/4/1 2/4/1 1/4/1
f 4/4/1 2/4/1 3/4/1
f 5/4/1 2/4/1 4/4/1
f 6/4/1 2/4/1 5/4/1
f 7/4/1 3/4/1 1/4/1
f 8/1/1 4/1/1 3/1/1
f 8/4/1 3/4/1 7/4/1
f 9/4/1 5/4/1 4/4/1
f 9/1/1 4/1/1 8/1/1
f 10/4/1 5/4/1 9/4/1
f 11/4/1 5/4/1 10/4/1
f 12/1/1 6/1/1 5/1/1
f 12/4/1 5/4/1 11/4/1
f 13/4/1 2/4/1 6/4/1
f 13/1/1 6/1/1 12/1/1
f 14/4/1 2/4/1 13/4/1
f 15/3/1 11/3/1 10/3/1
f 15/1/1 9/1/1 8/1/1
f 15/1/1 10/1/1 9/1/1
f 16/3/1 11/3/1 15/3/1
f 17/1/1 12/1/1 11/1/1
f 17/1/1 13/1/1 12/1/1
f 18/3/1 14/3/1 13/3/1
f 18/1/1 13/1/1 17/1/1
f 19/3/1 8/3/1 7/3/1
f 20/1/1 16/1/1 15/1/1
f 20/3/1 8/3/1 19/3/1
f 20/1/1 15/1/1 8/1/1
f 21/3/1 11/3/1 16/3/1
f 21/1/1 16/1/1 20/1/1
f 22/1/1 17/1/1 11/1/1
f 22/3/1 11/3/1 21/3/1
f 23/3/1 18/3/1 17/3/1
f 23/1/1 17/1/1 22/1/1
f 24/3/1 14/3/1 18/3/1
f 24/3/1 18/3/1 23/3/1
f 25/4/1 22/4/1 21/4/1
f 26/4/1 22/4/1 25/4/1
f 27/1/1 23/1/1 22/1/1
f 27/4/1 22/4/1 26/4/1
f 28/4/1 24/4/1 23/4/1
f 28/1/1 23/1/1 27/1/1
f 29/4/1 20/4/1 19/4/1
f 29/1/1 21/1/1 20/1/1
f 30/1/1 21/1/1 29/1/1
f 31/1/1 26/1/1 25/1/1
f 31/4/1 25/4/1 21/4/1
f 32/4/1 28/4/1 27/4/1
f 32/1/1 26/1/1 31/1/1
f 32/4/1 27/4/1 26/4/1
f 33/4/1 29/4/1 19/4/1
f 33/4/1 30/4/1 29/4/1
f 34/1/1 21/1/1 30/1/1
f 34/4/1 30/4/1 33/4/1
f 35/1/1 21/1/1 34/1/1
f 36/4/1 31/4/1 21/4/1
f 36/1/1 21/1/1 35/1/1
f 36/4/1 32/4/1 31/4/1
f 37/4/1 24/4/1 28/4/1
f 37/4/1 32/4/1 36/4/1
f 37/4/1 28/4/1 32/4/1
f 38/1/1 35/1/1 34/1/1
f 38/3/1 34/3/1 33/3/1
f 39/3/1 36/3/1 35/3/1
f 39/1/1 35/1/1 38/1/1
f 39/3/1 37/3/1 36/3/1
f 40/3/1 38/3/1 33/3/1
f 40/3/1 39/3/1 38/3/1
f 41/3/1 37/3/1 39/3/1
f 41/3/1 39/3/1 40/3/1
f 42/4/1 41/4/1 40/4/1
f 43/4/1 41/4/1 42/4/1
f 46/3/1 45/3/1 44/3/1
f 47/3/1 45/3/1 46/3/1
f 50/4/1 49/4/1 48/4/1
f 51/4/1 49/4/1 50/4/1
f 54/2/1 53/2/1 52/2/1
f 55/2/1 53/2/1 54/2/1
f 58/2/1 57/2/1 56/2/1
f 59/2/1 57/2/1 58/2/1
f 62/2/1 61/2/1 60/2/1
f 63/2/1 61/2/1 62/2/1
f 64/2/2 65/2/2 66/2/2
f 66/2/2 65/2/2 67/2/2
f 68/3/2 69/3/2 70/3/2
f 70/3/2 69/3/2 71/3/2
f 72/2/2 73/2/2 74/2/2
f 74/2/2 73/2/2 75/2/2
f 76/4/2 77/4/2 78/4/2
f 78/4/2 77/4/2 79/4/2
f 80/4/2 81/4/2 82/4/2
f 82/4/2 81/4/2 83/4/2
f 80/4/2 82/4/2 84/4/2
f 84/4/2 82/4/2 85/4/2
f 80/4/2 84/4/2 86/4/2
f 84/1/2 85/1/2 87/1/2
f 86/4/2 84/4/2 87/4/2
f 85/4/2 82/4/2 88/4/2
f 87/1/2 85/1/2 88/1/2
f 82/1/2 83/1/2 89/1/2
f 88/4/2 82/4/2 89/4/2
f 83/4/2 81/4/2 90/4/2
f 89/1/2 83/1/2 90/1/2
f 90/4/2 81/4/2 91/4/2
f 91/4/2 81/4/2 92/4/2
f 86/3/2 87/3/2 93/3/2
f 87/1/2 88/1/2 94/1/2
f 93/3/2 87/3/2 94/3/2
f 88/3/2 89/3/2 95/3/2
f 89/1/2 90/1/2 96/1/2
f 95/3/2 89/3/2 96/3/2
f 90/1/2 91/1/2 96/1/2
f 94/1/2 88/1/2 97/1/2
f 93/1/2 94/1/2 97/1/2
f 88/3/2 95/3/2 98/3/2
f 97/1/2 88/1/2 98/1/2
f 96/1/2 91/1/2 99/1/2
f 95/1/2 96/1/2 99/1/2
f 91/3/2 92/3/2 99/3/2
f 99/3/2 92/3/2 100/3/2
f 93/1/2 97/1/2 101/1/2
f 97/3/2 98/3/2 101/3/2
f 98/3/2 95/3/2 102/3/2
f 101/3/2 98/3/2 102/3/2
f 99/1/2 100/1/2 103/1/2
f 102/3/2 95/3/2 103/3/2
f 95/1/2 99/1/2 103/1/2
f 100/3/2 92/3/2 104/3/2
f 103/1/2 100/1/2 104/1/2
f 104/3/2 92/3/2 105/3/2
f 93/1/2 101/1/2 107/1/2
f 107/1/2 101/1/2 108/1/2
f 101/4/2 102/4/2 109/4/2
f 108/1/2 101/1/2 109/1/2
f 102/1/2 103/1/2 110/1/2
f 103/1/2 104/1/2 110/1/2
f 104/4/2 105/4/2 111/4/2
f 110/1/2 104/1/2 111/1/2
f 106/2/2 107/2/2 112/2/2
f 107/1/2 108/1/2 113/1/2
f 112/2/2 107/2/2 113/2/2
f 109/4/2 102/4/2 114/4/2
f 108/4/2 109/4/2 114/4/2
f 102/1/2 110/1/2 114/1/2
f 114/1/2 110/1/2 115/1/2
f 115/1/2 110/1/2 116/1/2
f 116/1/2 110/1/2 117/1/2
f 113/1/2 108/1/2 118/1/2
f 108/4/2 114/4/2 118/4/2
f 114/4/2 115/4/2 118/4/2
f 115/1/2 116/1/2 119/1/2
f 118/4/2 115/4/2 119/4/2
f 116/4/2 117/4/2 120/4/2
f 119/1/2 116/1/2 120/1/2
f 117/1/2 110/1/2 121/1/2
f 120/4/2 117/4/2 121/4/2
f 110/4/2 111/4/2 122/4/2
f 121/1/2 110/1/2 122/1/2
f 111/4/2 105/4/2 123/4/2
f 122/4/2 111/4/2 123/4/2
f 113/1/2 118/1/2 124/1/2
f 119/3/2 120/3/2 125/3/2
f 124/1/2 118/1/2 125/1/2
f 118/3/2 119/3/2 125/3/2
f 122/3/2 123/3/2 125/3/2
f 120/3/2 121/3/2 125/3/2
f 121/3/2 122/3/2 125/3/2
f 124/3/2 125/3/2 126/3/2
f 125/3/2 123/3/2 127/3/2
f 126/3/2 125/3/2 127/3/2
f 126/4/2 127/4/2 128/4/2
f 128/4/2 127/4/2 129/4/2
f 132/2/3 131/2/3 130/2/3
f 133/2/3 131/2/3 132/2/3
f 136/2/3 135/2/3 134/2/3
f 137/2/3 135/2/3 136/2/3
f 140/2/3 139/2/3 138/2/3
f 141/2/3 139/2/3 140/2/3
f 148/3/3 144/3/3 143/3/3
f 149/3/3 144/3/3 148/3/3
f 150/4/3 145/4/3 144/4/3
f 150/3/3 144/3/3 149/3/3
f 151/4/3 145/4/3 150/4/3
f 152/4/3 143/4/3 142/4/3
f 153/3/3 148/3/3 143/3/3
f 153/4/3 143/4/3 152/4/3
f 154/3/3 148/3/3 153/3/3
f 155/1/3 151/1/3 150/1/3
f 155/1/3 150/1/3 149/1/3
f 156/1/3 151/1/3 155/1/3
f 157/4/3 145/4/3 151/4/3
f 157/1/3 151/1/3 156/1/3
f 158/1/3 154/1/3 153/1/3
f 158/4/3 152/4/3 142/4/3
f 158/1/3 153/1/3 152/1/3
f 158/1/3 155/1/3 154/1/3
f 159/1/3 155/1/3 158/1/3
f 160/3/3 156/3/3 155/3/3
f 160/1/3 155/1/3 159/1/3
f 161/4/3 159/4/3 158/4/3
f 161/4/3 158/4/3 142/4/3
f 162/3/3 160/3/3 159/3/3
f 162/4/3 159/4/3 161/4/3
f 163/3/3 156/3/3 160/3/3
f 163/3/3 160/3/3 162/3/3
f 163/4/3 157/4/3 156/4/3
f 164/1/3 162/1/3 161/1/3
f 164/1/3 163/1/3 162/1/3
f 165/1/3 163/1/3 164/1/3
f 166/1/3 163/1/3 165/1/3
f 167/4/3 157/4/3 163/4/3
f 167/1/3 163/1/3 166/1/3
f 168/4/3 145/4/3 157/4/3
f 168/4/3 157/4/3 167/4/3
f 169/1/3 166/1/3 165/1/3
f 169/4/3 165/4/3 164/4/3
f 170/1/3 166/1/3 169/1/3
f 171/1/3 166/1/3 170/1/3
f 172/1/3 168/1/3 167/1/3
f 173/1/3 168/1/3 172/1/3
f 174/4/3 145/4/3 168/4/3
f 174/1/3 168/1/3 173/1/3
f 175/3/3 146/3/3 145/3/3
f 175/4/3 145/4/3 174/4/3
f 176/3/3 146/3/3 175/3/3
f 177/4/3 169/4/3 164/4/3
f 177/4/3 170/4/3 169/4/3
f 178/3/3 171/3/3 170/3/3
f 178/4/3 170/4/3 177/4/3
f 179/1/3 173/1/3 172/1/3
f 179/3/3 171/3/3 178/3/3
f 179/1/3 172/1/3 171/1/3
f 180/1/3 173/1/3 179/1/3
f 181/1/3 176/1/3 175/1/3
f 181/1/3 175/1/3 174/1/3
f 182/3/3 146/3/3 176/3/3
f 182/1/3 176/1/3 181/1/3
f 183/4/3 147/4/3 146/4/3
f 183/3/3 146/3/3 182/3/3
f 184/4/3 147/4/3 183/4/3
f 189/3/3 186/3/3 185/3/3
f 190/3/3 189/3/3 185/3/3
f 191/3/3 190/3/3 185/3/3
f 192/3/3 190/3/3 191/3/3
f 193/4/3 188/4/3 187/4/3
f 194/4/3 188/4/3 193/4/3
f 195/3/4 196/3/4 199/3/4
f 199/3/4 196/3/4 200/3/4
f 197/4/4 198/4/4 201/4/4
f 201/4/4 198/4/4 202/4/4
f 204/3/4 205/3/4 209/3/4
f 205/4/4 206/4/4 210/4/4
f 209/3/4 205/3/4 210/3/4
f 210/4/4 206/4/4 211/4/4
f 203/4/4 204/4/4 212/4/4
f 204/3/4 209/3/4 213/3/4
f 212/4/4 204/4/4 213/4/4
f 209/1/4 210/1/4 214/1/4
f 213/3/4 209/3/4 214/3/4
f 210/1/4 211/1/4 214/1/4
f 211/4/4 206/4/4 215/4/4
f 214/1/4 211/1/4 215/1/4
f 215/4/4 206/4/4 216/4/4
f 213/1/4 214/1/4 217/1/4
f 212/1/4 213/1/4 217/1/4
f 215/1/4 216/1/4 217/1/4
f 214/1/4 215/1/4 217/1/4
f 216/4/4 206/4/4 218/4/4
f 217/1/4 216/1/4 218/1/4
f 212/1/4 217/1/4 219/1/4
f 203/4/4 212/4/4 219/4/4
f 219/1/4 217/1/4 220/1/4
f 217/4/4 218/4/4 221/4/4
f 220/1/4 217/1/4 221/1/4
f 219/4/4 220/4/4 222/4/4
f 203/4/4 219/4/4 222/4/4
f 220/3/4 221/3/4 223/3/4
f 222/4/4 220/4/4 223/4/4
f 221/4/4 218/4/4 224/4/4
f 223/3/4 221/3/4 224/3/4
f 218/4/4 206/4/4 225/4/4
f 224/4/4 218/4/4 225/4/4
f 206/3/4 207/3/4 225/3/4
f 207/4/4 208/4/4 226/4/4
f 225/3/4 207/3/4 226/3/4
f 226/4/4 208/4/4 227/4/4
f 230/3/5 229/3/5 228/3/5
f 231/3/5 229/3/5 230/3/5
f 236/4/5 233/4/5 232/4/5
f 237/1/5 234/1/5 233/1/5
f 237/4/5 233/4/5 236/4/5
f 238/4/5 235/4/5 234/4/5
f 238/1/5 234/1/5 237/1/5
f 239/4/5 235/4/5 238/4/5
f 240/4/5 236/4/5 232/4/5
f 241/4/5 235/4/5 239/4/5
f 242/4/5 240/4/5 232/4/5
f 242/4/5 241/4/5 240/4/5
f 243/4/5 235/4/5 241/4/5
f 243/4/5 241/4/5 242/4/5
f 248/2/5 245/2/5 244/2/5
f 249/2/5 245/2/5 248/2/5
f 250/2/5 247/2/5 246/2/5
f 251/2/5 247/2/5 250/2/5
f 254/2/5 253/2/5 252/2/5
f 255/2/5 253/2/5 254/2/5
f 256/2/6 257/2/6 258/2/6
f 258/2/6 257/2/6 259/2/6
f 260/2/6 261/2/6 262/2/6
f 262/2/6 261/2/6 263/2/6
f 264/2/6 265/2/6 266/2/6
f 266/2/6 265/2/6 267/2/6
f 268/4/6 269/4/6 270/4/6
f 270/4/6 269/4/6 271/4/6
f 268/4/6 270/4/6 272/4/6
f 271/4/6 269/4/6 273/4/6
f 268/4/6 272/4/6 274/4/6
f 272/4/6 273/4/6 274/4/6
f 273/4/6 269/4/6 275/4/6
f 274/4/6 273/4/6 275/4/6
f 276/4/6 277/4/6 278/4/6
f 278/4/6 277/4/6 279/4/6
