# MagicaVoxel @ Ephtracy

# group
o 

# material
mtllib water_borda_1.mtl
usemtl palette

# normals
vn -1 0 0
vn 1 0 0
vn 0 0 1
vn 0 0 -1
vn 0 -1 0
vn 0 1 0

# texcoords
vt 0.884766 0.5
vt 0.888672 0.5
vt 0.892578 0.5
vt 0.896484 0.5

# verts
v -4 0 4
v -4 0 3.8
v -4 0 3.6
v -4 0 3.4
v -4 0 -4
v -4 0.8 4
v -4 0.8 3.8
v -4 0.8 3.6
v -4 0.8 3.4
v -4 0.8 -4
v 4 0 4
v 4 0 3.8
v 4 0 3.6
v 4 0 3.4
v 4 0 -4
v 4 0.8 4
v 4 0.8 3.8
v 4 0.8 3.6
v 4 0.8 3.4
v 4 0.8 -4
v -4 0 4
v -4 0.8 4
v 4 0 4
v 4 0.8 4
v -4 0 -4
v -4 0.8 -4
v 4 0 -4
v 4 0.8 -4
v -4 0 4
v 4 0 4
v -4 0 3.8
v 4 0 3.8
v -4 0 3.6
v 4 0 3.6
v -4 0 3.4
v 4 0 3.4
v -4 0 -4
v 4 0 -4
v -4 0.8 4
v 4 0.8 4
v -4 0.8 3.8
v 4 0.8 3.8
v -4 0.8 3.6
v 4 0.8 3.6
v -4 0.8 3.4
v 4 0.8 3.4
v -4 0.8 -4
v 4 0.8 -4

# faces
f 6/2/1 2/2/1 1/2/1
f 7/4/1 3/4/1 2/4/1
f 7/2/1 2/2/1 6/2/1
f 8/3/1 4/3/1 3/3/1
f 8/4/1 3/4/1 7/4/1
f 9/1/1 5/1/1 4/1/1
f 9/3/1 4/3/1 8/3/1
f 10/1/1 5/1/1 9/1/1
f 11/2/2 12/2/2 16/2/2
f 12/4/2 13/4/2 17/4/2
f 16/2/2 12/2/2 17/2/2
f 13/3/2 14/3/2 18/3/2
f 17/4/2 13/4/2 18/4/2
f 14/1/2 15/1/2 19/1/2
f 18/3/2 14/3/2 19/3/2
f 19/1/2 15/1/2 20/1/2
f 23/2/3 22/2/3 21/2/3
f 24/2/3 22/2/3 23/2/3
f 25/1/4 26/1/4 27/1/4
f 27/1/4 26/1/4 28/1/4
f 31/2/5 30/2/5 29/2/5
f 32/2/5 30/2/5 31/2/5
f 33/4/5 32/4/5 31/4/5
f 34/4/5 32/4/5 33/4/5
f 35/3/5 34/3/5 33/3/5
f 36/3/5 34/3/5 35/3/5
f 37/1/5 36/1/5 35/1/5
f 38/1/5 36/1/5 37/1/5
f 39/2/6 40/2/6 41/2/6
f 41/2/6 40/2/6 42/2/6
f 41/4/6 42/4/6 43/4/6
f 43/4/6 42/4/6 44/4/6
f 43/3/6 44/3/6 45/3/6
f 45/3/6 44/3/6 46/3/6
f 45/1/6 46/1/6 47/1/6
f 47/1/6 46/1/6 48/1/6
