# MagicaVoxel @ Ephtracy

# group
o 

# material
mtllib cabeça.mtl
usemtl palette

# normals
vn -1 0 0
vn 1 0 0
vn 0 0 1
vn 0 0 -1
vn 0 -1 0
vn 0 1 0

# texcoords
vt 0.736328 0.5
vt 0.884766 0.5
vt 0.912109 0.5
vt 0.923828 0.5
vt 0.939453 0.5

# verts
v -0.7 0.8 0.7
v -0.7 0.8 0.6
v -0.7 1 0.7
v -0.7 1 0.6
v -0.7 1.2 0.1
v -0.7 1.2 -0.1
v -0.7 1.6 0.1
v -0.7 1.6 -0.1
v -0.6 0.2 0.6
v -0.6 0.2 -0.6
v -0.6 0.3 0.3
v -0.6 0.3 -0.1
v -0.6 0.7 0.3
v -0.6 0.7 -0.1
v -0.6 0.8 0.6
v -0.6 0.9 -0.2
v -0.6 0.9 -0.4
v -0.6 1 0.6
v -0.6 1.1 -0.2
v -0.6 1.1 -0.4
v -0.6 1.2 0.1
v -0.6 1.2 -0.1
v -0.6 1.3 0.6
v -0.6 1.3 0.1
v -0.6 1.3 -0.1
v -0.6 1.3 -0.6
v -0.2 0.4 0.6
v -0.2 0.4 0.5
v -0.2 0.5 0.6
v -0.2 0.5 0.5
v -0.1 0.5 0.6
v -0.1 0.5 0.5
v -0.1 0.6 0.6
v -0.1 0.6 0.5
v 0.3 0.4 0.6
v 0.3 0.4 0.5
v 0.3 0.5 0.6
v 0.3 0.5 0.5
v 0.3 0.7 0.6
v 0.3 0.7 0.5
v 0.3 0.8 0.6
v 0.3 0.8 0.5
v 0.3 1.3 0.1
v 0.3 1.3 -0.1
v 0.3 1.6 0.1
v 0.3 1.6 -0.1
v 0.4 0.5 0.6
v 0.4 0.5 0.5
v 0.4 0.7 0.6
v 0.4 0.7 0.5
v 0.5 0.8 0.7
v 0.5 0.8 0.6
v 0.5 1 0.7
v 0.5 1 0.6
v -0.5 0.8 0.7
v -0.5 0.8 0.6
v -0.5 1 0.7
v -0.5 1 0.6
v -0.4 0.5 0.6
v -0.4 0.5 0.5
v -0.4 0.7 0.6
v -0.4 0.7 0.5
v -0.3 0.4 0.6
v -0.3 0.4 0.5
v -0.3 0.5 0.6
v -0.3 0.5 0.5
v -0.3 0.7 0.6
v -0.3 0.7 0.5
v -0.3 0.8 0.6
v -0.3 0.8 0.5
v -0.3 1.3 0.1
v -0.3 1.3 -0.1
v -0.3 1.6 0.1
v -0.3 1.6 -0.1
v 0.1 0.5 0.6
v 0.1 0.5 0.5
v 0.1 0.6 0.6
v 0.1 0.6 0.5
v 0.2 0.4 0.6
v 0.2 0.4 0.5
v 0.2 0.5 0.6
v 0.2 0.5 0.5
v 0.6 0.2 0.6
v 0.6 0.2 -0.6
v 0.6 0.4 -0.2
v 0.6 0.4 -0.4
v 0.6 0.6 -0.2
v 0.6 0.6 -0.4
v 0.6 0.8 0.6
v 0.6 0.8 0.4
v 0.6 0.8 0.1
v 0.6 1 0.6
v 0.6 1.1 0.4
v 0.6 1.1 0.1
v 0.6 1.2 0.1
v 0.6 1.2 -0.1
v 0.6 1.3 0.6
v 0.6 1.3 0.1
v 0.6 1.3 -0.1
v 0.6 1.3 -0.6
v 0.7 0.8 0.7
v 0.7 0.8 0.6
v 0.7 1 0.7
v 0.7 1 0.6
v 0.7 1.2 0.1
v 0.7 1.2 -0.1
v 0.7 1.6 0.1
v 0.7 1.6 -0.1
v -0.7 0.8 0.7
v -0.7 1 0.7
v -0.5 0.8 0.7
v -0.5 1 0.7
v 0.5 0.8 0.7
v 0.5 1 0.7
v 0.7 0.8 0.7
v 0.7 1 0.7
v -0.6 0.2 0.6
v -0.6 0.8 0.6
v -0.6 1 0.6
v -0.6 1.3 0.6
v -0.5 0.8 0.6
v -0.5 1 0.6
v -0.5 1.2 0.6
v -0.4 0.5 0.6
v -0.4 0.7 0.6
v -0.3 0.4 0.6
v -0.3 0.5 0.6
v -0.3 0.7 0.6
v -0.3 0.8 0.6
v -0.3 1 0.6
v -0.3 1.2 0.6
v -0.2 0.4 0.6
v -0.2 0.5 0.6
v -0.1 0.5 0.6
v -0.1 0.6 0.6
v 0.1 0.5 0.6
v 0.1 0.6 0.6
v 0.2 0.4 0.6
v 0.2 0.5 0.6
v 0.2 0.9 0.6
v 0.2 1.1 0.6
v 0.3 0.4 0.6
v 0.3 0.5 0.6
v 0.3 0.7 0.6
v 0.3 0.8 0.6
v 0.4 0.5 0.6
v 0.4 0.7 0.6
v 0.4 0.9 0.6
v 0.4 1.1 0.6
v 0.5 0.8 0.6
v 0.5 1 0.6
v 0.6 0.2 0.6
v 0.6 0.8 0.6
v 0.6 1 0.6
v 0.6 1.3 0.6
v -0.4 0.5 0.5
v -0.4 0.7 0.5
v -0.3 0.4 0.5
v -0.3 0.5 0.5
v -0.3 0.7 0.5
v -0.3 0.8 0.5
v -0.2 0.4 0.5
v -0.2 0.5 0.5
v -0.1 0.5 0.5
v -0.1 0.6 0.5
v 0.1 0.5 0.5
v 0.1 0.6 0.5
v 0.2 0.4 0.5
v 0.2 0.5 0.5
v 0.3 0.4 0.5
v 0.3 0.5 0.5
v 0.3 0.7 0.5
v 0.3 0.8 0.5
v 0.4 0.5 0.5
v 0.4 0.7 0.5
v -0.7 1.2 0.1
v -0.7 1.6 0.1
v -0.6 1.2 0.1
v -0.6 1.3 0.1
v -0.6 1.5 0.1
v -0.4 1.3 0.1
v -0.4 1.5 0.1
v -0.3 1.3 0.1
v -0.3 1.6 0.1
v 0.3 1.3 0.1
v 0.3 1.6 0.1
v 0.4 1.3 0.1
v 0.4 1.5 0.1
v 0.6 1.2 0.1
v 0.6 1.3 0.1
v 0.6 1.5 0.1
v 0.7 1.2 0.1
v 0.7 1.6 0.1
v -0.7 0.8 0.6
v -0.7 1 0.6
v -0.6 0.8 0.6
v -0.6 1 0.6
v 0.6 0.8 0.6
v 0.6 1 0.6
v 0.7 0.8 0.6
v 0.7 1 0.6
v -0.7 1.2 -0.1
v -0.7 1.6 -0.1
v -0.6 1.2 -0.1
v -0.6 1.3 -0.1
v -0.3 1.3 -0.1
v -0.3 1.6 -0.1
v 0.3 1.3 -0.1
v 0.3 1.6 -0.1
v 0.4 1.3 -0.1
v 0.6 1.2 -0.1
v 0.6 1.3 -0.1
v 0.7 1.2 -0.1
v 0.7 1.6 -0.1
v -0.6 0.2 -0.6
v -0.6 1.3 -0.6
v -0.3 0.6 -0.6
v -0.3 1 -0.6
v 0.1 0.6 -0.6
v 0.1 1 -0.6
v 0.6 0.2 -0.6
v 0.6 1.3 -0.6
v -0.6 0.2 0.6
v 0.6 0.2 0.6
v 0.2 0.2 0.5
v 0.4 0.2 0.5
v 0.2 0.2 0.3
v 0.4 0.2 0.3
v -0.2 0.2 0.2
v 0 0.2 0.2
v -0.2 0.2 0
v 0 0.2 0
v 0 0.2 -0.2
v 0.3 0.2 -0.2
v 0 0.2 -0.5
v 0.3 0.2 -0.5
v -0.6 0.2 -0.6
v 0.6 0.2 -0.6
v -0.4 0.7 0.6
v -0.3 0.7 0.6
v 0.3 0.7 0.6
v 0.4 0.7 0.6
v -0.4 0.7 0.5
v -0.3 0.7 0.5
v 0.3 0.7 0.5
v 0.4 0.7 0.5
v -0.7 0.8 0.7
v -0.5 0.8 0.7
v 0.5 0.8 0.7
v 0.7 0.8 0.7
v -0.7 0.8 0.6
v -0.6 0.8 0.6
v -0.5 0.8 0.6
v -0.3 0.8 0.6
v 0.3 0.8 0.6
v 0.5 0.8 0.6
v 0.6 0.8 0.6
v 0.7 0.8 0.6
v -0.3 0.8 0.5
v 0.3 0.8 0.5
v -0.7 1.2 0.1
v -0.6 1.2 0.1
v 0.6 1.2 0.1
v 0.7 1.2 0.1
v -0.7 1.2 -0.1
v -0.6 1.2 -0.1
v 0.6 1.2 -0.1
v 0.7 1.2 -0.1
v -0.3 0.4 0.6
v -0.2 0.4 0.6
v 0.2 0.4 0.6
v 0.3 0.4 0.6
v -0.3 0.4 0.5
v -0.2 0.4 0.5
v 0.2 0.4 0.5
v 0.3 0.4 0.5
v -0.4 0.5 0.6
v -0.3 0.5 0.6
v -0.2 0.5 0.6
v -0.1 0.5 0.6
v 0.1 0.5 0.6
v 0.2 0.5 0.6
v 0.3 0.5 0.6
v 0.4 0.5 0.6
v -0.4 0.5 0.5
v -0.3 0.5 0.5
v -0.2 0.5 0.5
v -0.1 0.5 0.5
v 0.1 0.5 0.5
v 0.2 0.5 0.5
v 0.3 0.5 0.5
v 0.4 0.5 0.5
v -0.1 0.6 0.6
v 0.1 0.6 0.6
v -0.1 0.6 0.5
v 0.1 0.6 0.5
v -0.7 1 0.7
v -0.5 1 0.7
v 0.5 1 0.7
v 0.7 1 0.7
v -0.7 1 0.6
v -0.6 1 0.6
v -0.5 1 0.6
v 0.5 1 0.6
v 0.6 1 0.6
v 0.7 1 0.6
v -0.6 1.3 0.6
v 0.6 1.3 0.6
v -0.3 1.3 0.4
v -0.1 1.3 0.4
v -0.3 1.3 0.2
v -0.1 1.3 0.2
v -0.6 1.3 0.1
v -0.4 1.3 0.1
v -0.3 1.3 0.1
v 0.3 1.3 0.1
v 0.4 1.3 0.1
v 0.6 1.3 0.1
v -0.6 1.3 -0.1
v -0.3 1.3 -0.1
v 0.1 1.3 -0.1
v 0.3 1.3 -0.1
v 0.4 1.3 -0.1
v 0.6 1.3 -0.1
v 0.1 1.3 -0.4
v 0.4 1.3 -0.4
v -0.6 1.3 -0.6
v 0.6 1.3 -0.6
v -0.7 1.6 0.1
v -0.3 1.6 0.1
v 0.3 1.6 0.1
v 0.7 1.6 0.1
v -0.7 1.6 -0.1
v -0.3 1.6 -0.1
v 0.3 1.6 -0.1
v 0.7 1.6 -0.1

# faces
f 3/1/1 2/1/1 1/1/1
f 4/1/1 2/1/1 3/1/1
f 7/3/1 6/3/1 5/3/1
f 8/3/1 6/3/1 7/3/1
f 11/3/1 10/3/1 9/3/1
f 12/3/1 10/3/1 11/3/1
f 13/3/1 11/3/1 9/3/1
f 13/5/1 12/5/1 11/5/1
f 14/3/1 10/3/1 12/3/1
f 14/5/1 12/5/1 13/5/1
f 15/3/1 13/3/1 9/3/1
f 15/3/1 14/3/1 13/3/1
f 16/3/1 10/3/1 14/3/1
f 16/3/1 14/3/1 15/3/1
f 17/3/1 10/3/1 16/3/1
f 18/3/1 16/3/1 15/3/1
f 19/5/1 17/5/1 16/5/1
f 19/3/1 16/3/1 18/3/1
f 20/3/1 10/3/1 17/3/1
f 20/5/1 17/5/1 19/5/1
f 21/3/1 19/3/1 18/3/1
f 21/3/1 20/3/1 19/3/1
f 22/3/1 20/3/1 21/3/1
f 23/3/1 21/3/1 18/3/1
f 24/3/1 21/3/1 23/3/1
f 25/3/1 20/3/1 22/3/1
f 26/3/1 10/3/1 20/3/1
f 26/3/1 20/3/1 25/3/1
f 29/3/1 28/3/1 27/3/1
f 30/3/1 28/3/1 29/3/1
f 33/3/1 32/3/1 31/3/1
f 34/3/1 32/3/1 33/3/1
f 37/3/1 36/3/1 35/3/1
f 38/3/1 36/3/1 37/3/1
f 41/3/1 40/3/1 39/3/1
f 42/3/1 40/3/1 41/3/1
f 45/3/1 44/3/1 43/3/1
f 46/3/1 44/3/1 45/3/1
f 49/3/1 48/3/1 47/3/1
f 50/3/1 48/3/1 49/3/1
f 53/1/1 52/1/1 51/1/1
f 54/1/1 52/1/1 53/1/1
f 55/1/2 56/1/2 57/1/2
f 57/1/2 56/1/2 58/1/2
f 59/3/2 60/3/2 61/3/2
f 61/3/2 60/3/2 62/3/2
f 63/3/2 64/3/2 65/3/2
f 65/3/2 64/3/2 66/3/2
f 67/3/2 68/3/2 69/3/2
f 69/3/2 68/3/2 70/3/2
f 71/3/2 72/3/2 73/3/2
f 73/3/2 72/3/2 74/3/2
f 75/3/2 76/3/2 77/3/2
f 77/3/2 76/3/2 78/3/2
f 79/3/2 80/3/2 81/3/2
f 81/3/2 80/3/2 82/3/2
f 83/3/2 84/3/2 85/3/2
f 85/3/2 84/3/2 86/3/2
f 83/3/2 85/3/2 87/3/2
f 85/5/2 86/5/2 87/5/2
f 86/3/2 84/3/2 88/3/2
f 87/5/2 86/5/2 88/5/2
f 83/3/2 87/3/2 89/3/2
f 87/3/2 88/3/2 89/3/2
f 89/3/2 88/3/2 90/3/2
f 90/3/2 88/3/2 91/3/2
f 89/3/2 90/3/2 92/3/2
f 90/5/2 91/5/2 93/5/2
f 92/3/2 90/3/2 93/3/2
f 91/3/2 88/3/2 94/3/2
f 93/5/2 91/5/2 94/5/2
f 93/3/2 94/3/2 95/3/2
f 94/3/2 88/3/2 95/3/2
f 95/3/2 88/3/2 96/3/2
f 92/3/2 93/3/2 97/3/2
f 93/3/2 95/3/2 97/3/2
f 97/3/2 95/3/2 98/3/2
f 96/3/2 88/3/2 99/3/2
f 88/3/2 84/3/2 100/3/2
f 99/3/2 88/3/2 100/3/2
f 101/1/2 102/1/2 103/1/2
f 103/1/2 102/1/2 104/1/2
f 105/3/2 106/3/2 107/3/2
f 107/3/2 106/3/2 108/3/2
f 111/1/3 110/1/3 109/1/3
f 112/1/3 110/1/3 111/1/3
f 115/1/3 114/1/3 113/1/3
f 116/1/3 114/1/3 115/1/3
f 121/3/3 118/3/3 117/3/3
f 122/3/3 120/3/3 119/3/3
f 123/3/3 120/3/3 122/3/3
f 124/3/3 121/3/3 117/3/3
f 124/3/3 122/3/3 121/3/3
f 125/3/3 122/3/3 124/3/3
f 126/3/3 124/3/3 117/3/3
f 127/3/3 124/3/3 126/3/3
f 128/3/3 122/3/3 125/3/3
f 129/3/3 122/3/3 128/3/3
f 130/5/3 123/5/3 122/5/3
f 130/3/3 122/3/3 129/3/3
f 131/3/3 120/3/3 123/3/3
f 131/5/3 123/5/3 130/5/3
f 132/3/3 126/3/3 117/3/3
f 134/3/3 133/3/3 132/3/3
f 136/3/3 134/3/3 132/3/3
f 136/3/3 135/3/3 134/3/3
f 137/3/3 135/3/3 136/3/3
f 138/3/3 132/3/3 117/3/3
f 138/3/3 136/3/3 132/3/3
f 139/3/3 136/3/3 138/3/3
f 140/3/3 130/3/3 129/3/3
f 140/3/3 131/3/3 130/3/3
f 141/3/3 131/3/3 140/3/3
f 142/3/3 138/3/3 117/3/3
f 145/3/3 140/3/3 129/3/3
f 146/3/3 143/3/3 142/3/3
f 147/3/3 145/3/3 144/3/3
f 148/5/3 141/5/3 140/5/3
f 148/3/3 140/3/3 145/3/3
f 148/3/3 145/3/3 147/3/3
f 149/3/3 131/3/3 141/3/3
f 149/5/3 141/5/3 148/5/3
f 150/3/3 148/3/3 147/3/3
f 150/3/3 147/3/3 146/3/3
f 150/3/3 149/3/3 148/3/3
f 151/3/3 149/3/3 150/3/3
f 152/3/3 146/3/3 142/3/3
f 152/3/3 142/3/3 117/3/3
f 152/3/3 150/3/3 146/3/3
f 153/3/3 150/3/3 152/3/3
f 154/3/3 149/3/3 151/3/3
f 155/3/3 131/3/3 149/3/3
f 155/3/3 149/3/3 154/3/3
f 155/3/3 120/3/3 131/3/3
f 159/4/3 157/4/3 156/4/3
f 160/4/3 157/4/3 159/4/3
f 162/4/3 159/4/3 158/4/3
f 162/4/3 161/4/3 160/4/3
f 162/4/3 160/4/3 159/4/3
f 163/4/3 161/4/3 162/4/3
f 164/4/3 161/4/3 163/4/3
f 165/4/3 161/4/3 164/4/3
f 167/4/3 161/4/3 165/4/3
f 169/4/3 167/4/3 166/4/3
f 170/4/3 169/4/3 168/4/3
f 171/4/3 167/4/3 169/4/3
f 171/4/3 169/4/3 170/4/3
f 172/4/3 161/4/3 167/4/3
f 172/4/3 167/4/3 171/4/3
f 173/4/3 161/4/3 172/4/3
f 174/4/3 172/4/3 171/4/3
f 175/4/3 172/4/3 174/4/3
f 178/3/3 177/3/3 176/3/3
f 179/3/3 177/3/3 178/3/3
f 180/3/3 177/3/3 179/3/3
f 181/5/3 180/5/3 179/5/3
f 182/3/3 177/3/3 180/3/3
f 182/5/3 180/5/3 181/5/3
f 183/3/3 182/3/3 181/3/3
f 184/3/3 177/3/3 182/3/3
f 184/3/3 182/3/3 183/3/3
f 187/3/3 186/3/3 185/3/3
f 188/3/3 186/3/3 187/3/3
f 190/5/3 188/5/3 187/5/3
f 191/3/3 186/3/3 188/3/3
f 191/5/3 188/5/3 190/5/3
f 192/3/3 190/3/3 189/3/3
f 192/3/3 191/3/3 190/3/3
f 193/3/3 186/3/3 191/3/3
f 193/3/3 191/3/3 192/3/3
f 194/1/4 195/1/4 196/1/4
f 196/1/4 195/1/4 197/1/4
f 198/1/4 199/1/4 200/1/4
f 200/1/4 199/1/4 201/1/4
f 202/3/4 203/3/4 204/3/4
f 204/3/4 203/3/4 205/3/4
f 205/3/4 203/3/4 206/3/4
f 206/3/4 203/3/4 207/3/4
f 208/3/4 209/3/4 210/3/4
f 210/3/4 209/3/4 212/3/4
f 211/3/4 212/3/4 213/3/4
f 212/3/4 209/3/4 214/3/4
f 213/3/4 212/3/4 214/3/4
f 215/3/4 216/3/4 217/3/4
f 217/3/4 216/3/4 218/3/4
f 215/3/4 217/3/4 219/3/4
f 217/5/4 218/5/4 219/5/4
f 218/3/4 216/3/4 220/3/4
f 219/5/4 218/5/4 220/5/4
f 215/3/4 219/3/4 221/3/4
f 219/3/4 220/3/4 221/3/4
f 220/3/4 216/3/4 222/3/4
f 221/3/4 220/3/4 222/3/4
f 225/3/5 224/3/5 223/3/5
f 226/3/5 224/3/5 225/3/5
f 227/3/5 225/3/5 223/3/5
f 227/5/5 226/5/5 225/5/5
f 228/3/5 224/3/5 226/3/5
f 228/5/5 226/5/5 227/5/5
f 229/3/5 227/3/5 223/3/5
f 229/3/5 228/3/5 227/3/5
f 230/3/5 228/3/5 229/3/5
f 231/3/5 229/3/5 223/3/5
f 231/5/5 230/5/5 229/5/5
f 232/3/5 228/3/5 230/3/5
f 232/5/5 230/5/5 231/5/5
f 233/3/5 232/3/5 231/3/5
f 233/3/5 228/3/5 232/3/5
f 234/3/5 228/3/5 233/3/5
f 235/3/5 233/3/5 231/3/5
f 235/5/5 234/5/5 233/5/5
f 236/3/5 228/3/5 234/3/5
f 236/5/5 234/5/5 235/5/5
f 237/3/5 231/3/5 223/3/5
f 237/3/5 235/3/5 231/3/5
f 237/3/5 236/3/5 235/3/5
f 238/3/5 224/3/5 228/3/5
f 238/3/5 236/3/5 237/3/5
f 238/3/5 228/3/5 236/3/5
f 243/3/5 240/3/5 239/3/5
f 244/3/5 240/3/5 243/3/5
f 245/3/5 242/3/5 241/3/5
f 246/3/5 242/3/5 245/3/5
f 251/1/5 248/1/5 247/1/5
f 252/1/5 248/1/5 251/1/5
f 253/1/5 248/1/5 252/1/5
f 256/1/5 250/1/5 249/1/5
f 257/1/5 250/1/5 256/1/5
f 258/1/5 250/1/5 257/1/5
f 259/3/5 255/3/5 254/3/5
f 260/3/5 255/3/5 259/3/5
f 265/3/5 262/3/5 261/3/5
f 266/3/5 262/3/5 265/3/5
f 267/3/5 264/3/5 263/3/5
f 268/3/5 264/3/5 267/3/5
f 269/3/6 270/3/6 273/3/6
f 273/3/6 270/3/6 274/3/6
f 271/3/6 272/3/6 275/3/6
f 275/3/6 272/3/6 276/3/6
f 277/3/6 278/3/6 285/3/6
f 285/3/6 278/3/6 286/3/6
f 279/3/6 280/3/6 287/3/6
f 287/3/6 280/3/6 288/3/6
f 281/3/6 282/3/6 289/3/6
f 289/3/6 282/3/6 290/3/6
f 283/3/6 284/3/6 291/3/6
f 291/3/6 284/3/6 292/3/6
f 293/3/6 294/3/6 295/3/6
f 295/3/6 294/3/6 296/3/6
f 297/1/6 298/1/6 301/1/6
f 301/1/6 298/1/6 302/1/6
f 302/1/6 298/1/6 303/1/6
f 299/1/6 300/1/6 304/1/6
f 304/1/6 300/1/6 305/1/6
f 305/1/6 300/1/6 306/1/6
f 307/3/6 308/3/6 309/3/6
f 309/3/6 308/3/6 310/3/6
f 307/3/6 309/3/6 311/3/6
f 309/5/6 310/5/6 311/5/6
f 310/3/6 308/3/6 312/3/6
f 311/5/6 310/5/6 312/5/6
f 307/3/6 311/3/6 313/3/6
f 311/3/6 312/3/6 313/3/6
f 313/3/6 312/3/6 314/3/6
f 314/3/6 312/3/6 315/3/6
f 312/3/6 308/3/6 316/3/6
f 315/3/6 312/3/6 316/3/6
f 316/3/6 308/3/6 317/3/6
f 317/3/6 308/3/6 318/3/6
f 315/3/6 316/3/6 320/3/6
f 320/3/6 316/3/6 321/3/6
f 321/3/6 316/3/6 322/3/6
f 319/3/6 320/3/6 325/3/6
f 320/3/6 321/3/6 325/3/6
f 322/5/6 323/5/6 325/5/6
f 321/5/6 322/5/6 325/5/6
f 323/3/6 324/3/6 326/3/6
f 325/5/6 323/5/6 326/5/6
f 319/3/6 325/3/6 327/3/6
f 325/3/6 326/3/6 327/3/6
f 326/3/6 324/3/6 328/3/6
f 327/3/6 326/3/6 328/3/6
f 329/3/6 330/3/6 333/3/6
f 333/3/6 330/3/6 334/3/6
f 331/3/6 332/3/6 335/3/6
f 335/3/6 332/3/6 336/3/6
