# MagicaVoxel @ Ephtracy

# group
o 

# material
mtllib pigi.mtl
usemtl palette

# normals
vn -1 0 0
vn 1 0 0
vn 0 0 1
vn 0 0 -1
vn 0 -1 0
vn 0 1 0

# texcoords
vt 0.306641 0.5
vt 0.865234 0.5
vt 0.916016 0.5
vt 0.927734 0.5
vt 0.931641 0.5

# verts
v -0.7 0.6 0.8
v -0.7 0.6 0.7
v -0.7 0.8 0.8
v -0.7 0.8 0.7
v -0.6 0 0.7
v -0.6 0 0.5
v -0.6 0 -0.5
v -0.6 0 -0.7
v -0.6 0.2 0.5
v -0.6 0.2 -0.5
v -0.6 0.4 0.7
v -0.6 0.4 0.6
v -0.6 0.6 0.7
v -0.6 0.6 0.6
v -0.6 0.8 0.7
v -0.6 1 0.7
v -0.6 1 0.5
v -0.6 1 0.4
v -0.6 1 -0.7
v -0.6 1.1 0.5
v -0.6 1.1 0.4
v -0.5 1.1 0.5
v -0.5 1.1 0.4
v -0.5 1.2 0.5
v -0.5 1.2 0.4
v -0.3 0.3 0.8
v -0.3 0.3 0.7
v -0.3 0.7 0.8
v -0.3 0.7 0.7
v -0.1 0.3 -0.7
v -0.1 0.3 -0.8
v -0.1 0.4 0.8
v -0.1 0.4 0.7
v -0.1 0.4 -0.7
v -0.1 0.4 -0.8
v -0.1 0.6 0.8
v -0.1 0.6 0.7
v 0 0.4 -0.7
v 0 0.4 -0.8
v 0 0.5 -0.7
v 0 0.5 -0.8
v 0.2 0.4 0.8
v 0.2 0.4 0.7
v 0.2 0.6 0.8
v 0.2 0.6 0.7
v 0.3 1 0.5
v 0.3 1 0.4
v 0.3 1.1 0.5
v 0.3 1.1 0.4
v 0.4 0 0.7
v 0.4 0 0.5
v 0.4 0 -0.5
v 0.4 0 -0.7
v 0.4 0.2 0.7
v 0.4 0.2 0.5
v 0.4 0.2 -0.5
v 0.4 0.2 -0.7
v 0.4 1.1 0.5
v 0.4 1.1 0.4
v 0.4 1.2 0.5
v 0.4 1.2 0.4
v 0.5 0.6 0.8
v 0.5 0.6 0.7
v 0.5 0.8 0.8
v 0.5 0.8 0.7
v -0.5 0.6 0.8
v -0.5 0.6 0.7
v -0.5 0.8 0.8
v -0.5 0.8 0.7
v -0.4 0 0.7
v -0.4 0 0.5
v -0.4 0 -0.5
v -0.4 0 -0.7
v -0.4 0.2 0.7
v -0.4 0.2 0.5
v -0.4 0.2 -0.5
v -0.4 0.2 -0.7
v -0.4 1.1 0.5
v -0.4 1.1 0.4
v -0.4 1.2 0.5
v -0.4 1.2 0.4
v -0.3 1 0.5
v -0.3 1 0.4
v -0.3 1.1 0.5
v -0.3 1.1 0.4
v -0.2 0.4 0.8
v -0.2 0.4 0.7
v -0.2 0.6 0.8
v -0.2 0.6 0.7
v 0 0.3 -0.7
v 0 0.3 -0.8
v 0 0.4 -0.7
v 0 0.4 -0.8
v 0.1 0.4 0.8
v 0.1 0.4 0.7
v 0.1 0.4 -0.7
v 0.1 0.4 -0.8
v 0.1 0.5 -0.7
v 0.1 0.5 -0.8
v 0.1 0.6 0.8
v 0.1 0.6 0.7
v 0.3 0.3 0.8
v 0.3 0.3 0.7
v 0.3 0.7 0.8
v 0.3 0.7 0.7
v 0.5 1.1 0.5
v 0.5 1.1 0.4
v 0.5 1.2 0.5
v 0.5 1.2 0.4
v 0.6 0 0.7
v 0.6 0 0.5
v 0.6 0 -0.5
v 0.6 0 -0.7
v 0.6 0.2 0.5
v 0.6 0.2 -0.5
v 0.6 0.4 0.7
v 0.6 0.4 0.6
v 0.6 0.6 0.7
v 0.6 0.6 0.6
v 0.6 0.8 0.7
v 0.6 1 0.7
v 0.6 1 0.5
v 0.6 1 0.4
v 0.6 1 -0.7
v 0.6 1.1 0.5
v 0.6 1.1 0.4
v 0.7 0.6 0.8
v 0.7 0.6 0.7
v 0.7 0.8 0.8
v 0.7 0.8 0.7
v -0.7 0.6 0.8
v -0.7 0.8 0.8
v -0.5 0.6 0.8
v -0.5 0.8 0.8
v -0.3 0.3 0.8
v -0.3 0.7 0.8
v -0.2 0.4 0.8
v -0.2 0.6 0.8
v -0.1 0.4 0.8
v -0.1 0.6 0.8
v 0.1 0.4 0.8
v 0.1 0.6 0.8
v 0.2 0.4 0.8
v 0.2 0.6 0.8
v 0.3 0.3 0.8
v 0.3 0.7 0.8
v 0.5 0.6 0.8
v 0.5 0.8 0.8
v 0.7 0.6 0.8
v 0.7 0.8 0.8
v -0.6 0 0.7
v -0.6 0.4 0.7
v -0.6 0.6 0.7
v -0.6 0.8 0.7
v -0.6 1 0.7
v -0.5 0.6 0.7
v -0.5 0.8 0.7
v -0.4 0 0.7
v -0.4 0.2 0.7
v -0.4 0.4 0.7
v -0.4 0.6 0.7
v -0.3 0.3 0.7
v -0.3 0.7 0.7
v -0.2 0.4 0.7
v -0.2 0.6 0.7
v -0.1 0.4 0.7
v -0.1 0.6 0.7
v 0.1 0.4 0.7
v 0.1 0.6 0.7
v 0.2 0.4 0.7
v 0.2 0.6 0.7
v 0.3 0.3 0.7
v 0.3 0.7 0.7
v 0.4 0 0.7
v 0.4 0.2 0.7
v 0.4 0.4 0.7
v 0.4 0.6 0.7
v 0.5 0.6 0.7
v 0.5 0.8 0.7
v 0.6 0 0.7
v 0.6 0.4 0.7
v 0.6 0.6 0.7
v 0.6 0.8 0.7
v 0.6 1 0.7
v -0.6 1 0.5
v -0.6 1.1 0.5
v -0.5 1.1 0.5
v -0.5 1.2 0.5
v -0.4 1.1 0.5
v -0.4 1.2 0.5
v -0.3 1 0.5
v -0.3 1.1 0.5
v 0.3 1 0.5
v 0.3 1.1 0.5
v 0.4 1.1 0.5
v 0.4 1.2 0.5
v 0.5 1.1 0.5
v 0.5 1.2 0.5
v 0.6 1 0.5
v 0.6 1.1 0.5
v -0.6 0 -0.5
v -0.6 0.2 -0.5
v -0.4 0 -0.5
v -0.4 0.2 -0.5
v 0.4 0 -0.5
v 0.4 0.2 -0.5
v 0.6 0 -0.5
v 0.6 0.2 -0.5
v -0.7 0.6 0.7
v -0.7 0.8 0.7
v -0.6 0.6 0.7
v -0.6 0.8 0.7
v 0.6 0.6 0.7
v 0.6 0.8 0.7
v 0.7 0.6 0.7
v 0.7 0.8 0.7
v -0.6 0 0.5
v -0.6 0.2 0.5
v -0.4 0 0.5
v -0.4 0.2 0.5
v 0.4 0 0.5
v 0.4 0.2 0.5
v 0.6 0 0.5
v 0.6 0.2 0.5
v -0.6 1 0.4
v -0.6 1.1 0.4
v -0.5 1.1 0.4
v -0.5 1.2 0.4
v -0.4 1.1 0.4
v -0.4 1.2 0.4
v -0.3 1 0.4
v -0.3 1.1 0.4
v 0.3 1 0.4
v 0.3 1.1 0.4
v 0.4 1.1 0.4
v 0.4 1.2 0.4
v 0.5 1.1 0.4
v 0.5 1.2 0.4
v 0.6 1 0.4
v 0.6 1.1 0.4
v -0.6 0 -0.7
v -0.6 1 -0.7
v -0.4 0 -0.7
v -0.4 0.2 -0.7
v -0.1 0.3 -0.7
v -0.1 0.4 -0.7
v 0 0.3 -0.7
v 0 0.4 -0.7
v 0 0.5 -0.7
v 0.1 0.4 -0.7
v 0.1 0.5 -0.7
v 0.4 0 -0.7
v 0.4 0.2 -0.7
v 0.6 0 -0.7
v 0.6 1 -0.7
v -0.1 0.3 -0.8
v -0.1 0.4 -0.8
v 0 0.3 -0.8
v 0 0.4 -0.8
v 0 0.5 -0.8
v 0.1 0.4 -0.8
v 0.1 0.5 -0.8
v -0.6 0 0.7
v -0.4 0 0.7
v 0.4 0 0.7
v 0.6 0 0.7
v -0.6 0 0.5
v -0.4 0 0.5
v 0.4 0 0.5
v 0.6 0 0.5
v -0.6 0 -0.5
v -0.4 0 -0.5
v 0.4 0 -0.5
v 0.6 0 -0.5
v -0.6 0 -0.7
v -0.4 0 -0.7
v 0.4 0 -0.7
v 0.6 0 -0.7
v -0.4 0.2 0.7
v 0.4 0.2 0.7
v -0.6 0.2 0.5
v -0.4 0.2 0.5
v 0.4 0.2 0.5
v 0.6 0.2 0.5
v -0.6 0.2 -0.5
v -0.4 0.2 -0.5
v 0.4 0.2 -0.5
v 0.6 0.2 -0.5
v -0.4 0.2 -0.7
v 0.4 0.2 -0.7
v -0.3 0.3 0.8
v 0.3 0.3 0.8
v -0.3 0.3 0.7
v 0.3 0.3 0.7
v -0.1 0.3 -0.7
v 0 0.3 -0.7
v -0.1 0.3 -0.8
v 0 0.3 -0.8
v 0 0.4 -0.7
v 0.1 0.4 -0.7
v 0 0.4 -0.8
v 0.1 0.4 -0.8
v -0.7 0.6 0.8
v -0.5 0.6 0.8
v -0.2 0.6 0.8
v -0.1 0.6 0.8
v 0.1 0.6 0.8
v 0.2 0.6 0.8
v 0.5 0.6 0.8
v 0.7 0.6 0.8
v -0.7 0.6 0.7
v -0.6 0.6 0.7
v -0.5 0.6 0.7
v -0.2 0.6 0.7
v -0.1 0.6 0.7
v 0.1 0.6 0.7
v 0.2 0.6 0.7
v 0.5 0.6 0.7
v 0.6 0.6 0.7
v 0.7 0.6 0.7
v -0.2 0.4 0.8
v -0.1 0.4 0.8
v 0.1 0.4 0.8
v 0.2 0.4 0.8
v -0.2 0.4 0.7
v -0.1 0.4 0.7
v 0.1 0.4 0.7
v 0.2 0.4 0.7
v -0.1 0.4 -0.7
v 0 0.4 -0.7
v -0.1 0.4 -0.8
v 0 0.4 -0.8
v 0 0.5 -0.7
v 0.1 0.5 -0.7
v 0 0.5 -0.8
v 0.1 0.5 -0.8
v -0.3 0.7 0.8
v 0.3 0.7 0.8
v -0.3 0.7 0.7
v 0.3 0.7 0.7
v -0.7 0.8 0.8
v -0.5 0.8 0.8
v 0.5 0.8 0.8
v 0.7 0.8 0.8
v -0.7 0.8 0.7
v -0.6 0.8 0.7
v -0.5 0.8 0.7
v 0.5 0.8 0.7
v 0.6 0.8 0.7
v 0.7 0.8 0.7
v -0.6 1 0.7
v 0.6 1 0.7
v -0.6 1 0.5
v -0.3 1 0.5
v 0.3 1 0.5
v 0.6 1 0.5
v -0.6 1 0.4
v -0.3 1 0.4
v 0.3 1 0.4
v 0.6 1 0.4
v -0.6 1 -0.7
v 0.6 1 -0.7
v -0.6 1.1 0.5
v -0.5 1.1 0.5
v -0.4 1.1 0.5
v -0.3 1.1 0.5
v 0.3 1.1 0.5
v 0.4 1.1 0.5
v 0.5 1.1 0.5
v 0.6 1.1 0.5
v -0.6 1.1 0.4
v -0.5 1.1 0.4
v -0.4 1.1 0.4
v -0.3 1.1 0.4
v 0.3 1.1 0.4
v 0.4 1.1 0.4
v 0.5 1.1 0.4
v 0.6 1.1 0.4
v -0.5 1.2 0.5
v -0.4 1.2 0.5
v 0.4 1.2 0.5
v 0.5 1.2 0.5
v -0.5 1.2 0.4
v -0.4 1.2 0.4
v 0.4 1.2 0.4
v 0.5 1.2 0.4

# faces
f 3/2/1 2/2/1 1/2/1
f 4/2/1 2/2/1 3/2/1
f 9/4/1 6/4/1 5/4/1
f 10/4/1 8/4/1 7/4/1
f 11/4/1 9/4/1 5/4/1
f 11/4/1 10/4/1 9/4/1
f 12/4/1 10/4/1 11/4/1
f 13/3/1 12/3/1 11/3/1
f 14/4/1 10/4/1 12/4/1
f 14/3/1 12/3/1 13/3/1
f 15/4/1 14/4/1 13/4/1
f 16/4/1 14/4/1 15/4/1
f 17/4/1 10/4/1 14/4/1
f 17/4/1 14/4/1 16/4/1
f 18/4/1 10/4/1 17/4/1
f 19/4/1 8/4/1 10/4/1
f 19/4/1 10/4/1 18/4/1
f 20/4/1 18/4/1 17/4/1
f 21/4/1 18/4/1 20/4/1
f 24/4/1 23/4/1 22/4/1
f 25/4/1 23/4/1 24/4/1
f 28/4/1 27/4/1 26/4/1
f 29/4/1 27/4/1 28/4/1
f 34/4/1 31/4/1 30/4/1
f 35/4/1 31/4/1 34/4/1
f 36/4/1 33/4/1 32/4/1
f 37/4/1 33/4/1 36/4/1
f 40/4/1 39/4/1 38/4/1
f 41/4/1 39/4/1 40/4/1
f 44/4/1 43/4/1 42/4/1
f 45/4/1 43/4/1 44/4/1
f 48/4/1 47/4/1 46/4/1
f 49/4/1 47/4/1 48/4/1
f 54/4/1 51/4/1 50/4/1
f 55/4/1 51/4/1 54/4/1
f 56/4/1 53/4/1 52/4/1
f 57/4/1 53/4/1 56/4/1
f 60/4/1 59/4/1 58/4/1
f 61/4/1 59/4/1 60/4/1
f 64/2/1 63/2/1 62/2/1
f 65/2/1 63/2/1 64/2/1
f 66/2/2 67/2/2 68/2/2
f 68/2/2 67/2/2 69/2/2
f 70/4/2 71/4/2 74/4/2
f 74/4/2 71/4/2 75/4/2
f 72/4/2 73/4/2 76/4/2
f 76/4/2 73/4/2 77/4/2
f 78/4/2 79/4/2 80/4/2
f 80/4/2 79/4/2 81/4/2
f 82/4/2 83/4/2 84/4/2
f 84/4/2 83/4/2 85/4/2
f 86/4/2 87/4/2 88/4/2
f 88/4/2 87/4/2 89/4/2
f 90/4/2 91/4/2 92/4/2
f 92/4/2 91/4/2 93/4/2
f 96/4/2 97/4/2 98/4/2
f 98/4/2 97/4/2 99/4/2
f 94/4/2 95/4/2 100/4/2
f 100/4/2 95/4/2 101/4/2
f 102/4/2 103/4/2 104/4/2
f 104/4/2 103/4/2 105/4/2
f 106/4/2 107/4/2 108/4/2
f 108/4/2 107/4/2 109/4/2
f 110/4/2 111/4/2 114/4/2
f 112/4/2 113/4/2 115/4/2
f 110/4/2 114/4/2 116/4/2
f 114/4/2 115/4/2 116/4/2
f 116/4/2 115/4/2 117/4/2
f 116/3/2 117/3/2 118/3/2
f 117/4/2 115/4/2 119/4/2
f 118/3/2 117/3/2 119/3/2
f 118/4/2 119/4/2 120/4/2
f 120/4/2 119/4/2 121/4/2
f 119/4/2 115/4/2 122/4/2
f 121/4/2 119/4/2 122/4/2
f 122/4/2 115/4/2 123/4/2
f 115/4/2 113/4/2 124/4/2
f 123/4/2 115/4/2 124/4/2
f 122/4/2 123/4/2 125/4/2
f 125/4/2 123/4/2 126/4/2
f 127/2/2 128/2/2 129/2/2
f 129/2/2 128/2/2 130/2/2
f 133/2/3 132/2/3 131/2/3
f 134/2/3 132/2/3 133/2/3
f 137/4/3 136/4/3 135/4/3
f 138/4/3 136/4/3 137/4/3
f 139/4/3 137/4/3 135/4/3
f 140/4/3 136/4/3 138/4/3
f 141/4/3 139/4/3 135/4/3
f 141/4/3 140/4/3 139/4/3
f 142/4/3 136/4/3 140/4/3
f 142/4/3 140/4/3 141/4/3
f 143/4/3 141/4/3 135/4/3
f 144/4/3 136/4/3 142/4/3
f 145/4/3 143/4/3 135/4/3
f 145/4/3 144/4/3 143/4/3
f 146/4/3 136/4/3 144/4/3
f 146/4/3 144/4/3 145/4/3
f 149/2/3 148/2/3 147/2/3
f 150/2/3 148/2/3 149/2/3
f 156/3/3 153/3/3 152/3/3
f 157/4/3 155/4/3 154/4/3
f 158/4/3 152/4/3 151/4/3
f 159/4/3 152/4/3 158/4/3
f 160/3/3 156/3/3 152/3/3
f 160/4/3 152/4/3 159/4/3
f 161/4/3 157/4/3 156/4/3
f 161/3/3 156/3/3 160/3/3
f 162/4/3 160/4/3 159/4/3
f 162/4/3 161/4/3 160/4/3
f 163/4/3 157/4/3 161/4/3
f 163/4/3 161/4/3 162/4/3
f 166/5/3 165/5/3 164/5/3
f 167/5/3 165/5/3 166/5/3
f 170/5/3 169/5/3 168/5/3
f 171/5/3 169/5/3 170/5/3
f 172/4/3 162/4/3 159/4/3
f 173/4/3 157/4/3 163/4/3
f 175/4/3 172/4/3 159/4/3
f 175/4/3 173/4/3 172/4/3
f 176/4/3 173/4/3 175/4/3
f 177/4/3 173/4/3 176/4/3
f 178/3/3 177/3/3 176/3/3
f 178/4/3 173/4/3 177/4/3
f 179/4/3 157/4/3 173/4/3
f 179/4/3 173/4/3 178/4/3
f 179/4/3 155/4/3 157/4/3
f 180/4/3 176/4/3 175/4/3
f 180/4/3 175/4/3 174/4/3
f 181/3/3 178/3/3 176/3/3
f 181/4/3 176/4/3 180/4/3
f 182/3/3 178/3/3 181/3/3
f 183/4/3 155/4/3 179/4/3
f 184/4/3 155/4/3 183/4/3
f 187/4/3 186/4/3 185/4/3
f 189/4/3 187/4/3 185/4/3
f 189/4/3 188/4/3 187/4/3
f 190/4/3 188/4/3 189/4/3
f 191/4/3 189/4/3 185/4/3
f 192/4/3 189/4/3 191/4/3
f 195/4/3 194/4/3 193/4/3
f 197/4/3 195/4/3 193/4/3
f 197/4/3 196/4/3 195/4/3
f 198/4/3 196/4/3 197/4/3
f 199/4/3 197/4/3 193/4/3
f 200/4/3 197/4/3 199/4/3
f 203/4/3 202/4/3 201/4/3
f 204/4/3 202/4/3 203/4/3
f 207/4/3 206/4/3 205/4/3
f 208/4/3 206/4/3 207/4/3
f 209/2/4 210/2/4 211/2/4
f 211/2/4 210/2/4 212/2/4
f 213/2/4 214/2/4 215/2/4
f 215/2/4 214/2/4 216/2/4
f 217/4/4 218/4/4 219/4/4
f 219/4/4 218/4/4 220/4/4
f 221/4/4 222/4/4 223/4/4
f 223/4/4 222/4/4 224/4/4
f 225/4/4 226/4/4 227/4/4
f 225/4/4 227/4/4 229/4/4
f 227/4/4 228/4/4 229/4/4
f 229/4/4 228/4/4 230/4/4
f 225/4/4 229/4/4 231/4/4
f 231/4/4 229/4/4 232/4/4
f 233/4/4 234/4/4 235/4/4
f 233/4/4 235/4/4 237/4/4
f 235/4/4 236/4/4 237/4/4
f 237/4/4 236/4/4 238/4/4
f 233/4/4 237/4/4 239/4/4
f 239/4/4 237/4/4 240/4/4
f 241/4/4 242/4/4 243/4/4
f 243/4/4 242/4/4 244/4/4
f 244/4/4 242/4/4 245/4/4
f 245/4/4 242/4/4 246/4/4
f 244/4/4 245/4/4 247/4/4
f 246/4/4 242/4/4 248/4/4
f 248/4/4 242/4/4 249/4/4
f 247/4/4 248/4/4 250/4/4
f 249/4/4 242/4/4 251/4/4
f 244/4/4 247/4/4 253/4/4
f 250/4/4 251/4/4 253/4/4
f 247/4/4 250/4/4 253/4/4
f 252/4/4 253/4/4 254/4/4
f 251/4/4 242/4/4 255/4/4
f 254/4/4 253/4/4 255/4/4
f 253/4/4 251/4/4 255/4/4
f 256/4/4 257/4/4 258/4/4
f 258/4/4 257/4/4 259/4/4
f 259/4/4 260/4/4 261/4/4
f 261/4/4 260/4/4 262/4/4
f 267/4/5 264/4/5 263/4/5
f 268/4/5 264/4/5 267/4/5
f 269/4/5 266/4/5 265/4/5
f 270/4/5 266/4/5 269/4/5
f 275/4/5 272/4/5 271/4/5
f 276/4/5 272/4/5 275/4/5
f 277/4/5 274/4/5 273/4/5
f 278/4/5 274/4/5 277/4/5
f 282/4/5 280/4/5 279/4/5
f 283/4/5 280/4/5 282/4/5
f 285/4/5 282/4/5 281/4/5
f 285/4/5 284/4/5 283/4/5
f 285/4/5 283/4/5 282/4/5
f 286/4/5 284/4/5 285/4/5
f 287/4/5 284/4/5 286/4/5
f 288/4/5 284/4/5 287/4/5
f 289/4/5 287/4/5 286/4/5
f 290/4/5 287/4/5 289/4/5
f 293/4/5 292/4/5 291/4/5
f 294/4/5 292/4/5 293/4/5
f 297/4/5 296/4/5 295/4/5
f 298/4/5 296/4/5 297/4/5
f 301/4/5 300/4/5 299/4/5
f 302/4/5 300/4/5 301/4/5
f 311/2/5 304/2/5 303/2/5
f 312/2/5 304/2/5 311/2/5
f 313/2/5 304/2/5 312/2/5
f 314/4/5 306/4/5 305/4/5
f 315/4/5 306/4/5 314/4/5
f 316/4/5 308/4/5 307/4/5
f 317/4/5 308/4/5 316/4/5
f 318/2/5 310/2/5 309/2/5
f 319/2/5 310/2/5 318/2/5
f 320/2/5 310/2/5 319/2/5
f 321/4/6 322/4/6 325/4/6
f 325/4/6 322/4/6 326/4/6
f 323/4/6 324/4/6 327/4/6
f 327/4/6 324/4/6 328/4/6
f 329/4/6 330/4/6 331/4/6
f 331/4/6 330/4/6 332/4/6
f 333/4/6 334/4/6 335/4/6
f 335/4/6 334/4/6 336/4/6
f 337/4/6 338/4/6 339/4/6
f 339/4/6 338/4/6 340/4/6
f 341/2/6 342/2/6 345/2/6
f 345/2/6 342/2/6 346/2/6
f 346/2/6 342/2/6 347/2/6
f 343/2/6 344/2/6 348/2/6
f 348/2/6 344/2/6 349/2/6
f 349/2/6 344/2/6 350/2/6
f 351/4/6 352/4/6 353/4/6
f 353/4/6 352/4/6 354/4/6
f 354/4/6 352/4/6 355/4/6
f 355/4/6 352/4/6 356/4/6
f 354/4/6 355/4/6 358/4/6
f 358/4/6 355/4/6 359/4/6
f 357/4/6 358/4/6 361/4/6
f 359/4/6 360/4/6 361/4/6
f 358/4/6 359/4/6 361/4/6
f 361/4/6 360/4/6 362/4/6
f 363/4/6 364/4/6 371/4/6
f 371/4/6 364/4/6 372/4/6
f 365/4/6 366/4/6 373/4/6
f 373/4/6 366/4/6 374/4/6
f 367/4/6 368/4/6 375/4/6
f 375/4/6 368/4/6 376/4/6
f 369/4/6 370/4/6 377/4/6
f 377/4/6 370/4/6 378/4/6
f 379/4/6 380/4/6 383/4/6
f 383/4/6 380/4/6 384/4/6
f 381/4/6 382/4/6 385/4/6
f 385/4/6 382/4/6 386/4/6
