# MagicaVoxel @ Ephtracy

# group
o 

# material
mtllib cobra_cabeca.mtl
usemtl palette

# normals
vn -1 0 0
vn 1 0 0
vn 0 0 1
vn 0 0 -1
vn 0 -1 0
vn 0 1 0

# texcoords
vt 0.00195312 0.5
vt 0.00585938 0.5
vt 0.00976562 0.5

# verts
v -0.3 0.5 0.7
v -0.3 0.5 0.6
v -0.3 0.7 0.7
v -0.3 0.7 0.6
v -0.2 0.5 0.6
v -0.2 0.5 0.2
v -0.2 0.7 0.7
v -0.2 0.7 0.6
v -0.2 0.8 0.7
v -0.2 0.8 0.6
v -0.2 0.8 0.5
v -0.2 0.8 0.4
v -0.2 0.8 0.2
v -0.2 0.9 0.5
v -0.2 0.9 0.4
v -0.1 0.2 0.5
v -0.1 0.2 0.1
v -0.1 0.3 0.3
v -0.1 0.3 0.1
v -0.1 0.5 0.5
v -0.1 0.5 0.3
v 0.1 0.5 0.7
v 0.1 0.5 0.6
v 0.1 0.7 0.7
v 0.1 0.7 0.6
v 0.1 0.8 0.7
v 0.1 0.8 0.6
v 0.1 0.8 0.5
v 0.1 0.8 0.4
v 0.1 0.9 0.5
v 0.1 0.9 0.4
v -0.1 0.5 0.7
v -0.1 0.5 0.6
v -0.1 0.7 0.7
v -0.1 0.7 0.6
v -0.1 0.8 0.7
v -0.1 0.8 0.6
v -0.1 0.8 0.5
v -0.1 0.8 0.4
v -0.1 0.9 0.5
v -0.1 0.9 0.4
v 0.1 0.2 0.5
v 0.1 0.2 0.1
v 0.1 0.3 0.3
v 0.1 0.3 0.1
v 0.1 0.5 0.5
v 0.1 0.5 0.3
v 0.2 0.5 0.6
v 0.2 0.5 0.2
v 0.2 0.7 0.7
v 0.2 0.7 0.6
v 0.2 0.8 0.7
v 0.2 0.8 0.6
v 0.2 0.8 0.5
v 0.2 0.8 0.4
v 0.2 0.8 0.2
v 0.2 0.9 0.5
v 0.2 0.9 0.4
v 0.3 0.5 0.7
v 0.3 0.5 0.6
v 0.3 0.7 0.7
v 0.3 0.7 0.6
v -0.3 0.5 0.7
v -0.3 0.7 0.7
v -0.2 0.5 0.7
v -0.2 0.7 0.7
v -0.2 0.8 0.7
v -0.1 0.5 0.7
v -0.1 0.7 0.7
v -0.1 0.8 0.7
v 0.1 0.5 0.7
v 0.1 0.7 0.7
v 0.1 0.8 0.7
v 0.2 0.5 0.7
v 0.2 0.7 0.7
v 0.2 0.8 0.7
v 0.3 0.5 0.7
v 0.3 0.7 0.7
v -0.1 0.5 0.6
v -0.1 0.7 0.6
v -0.1 0.8 0.6
v 0.1 0.5 0.6
v 0.1 0.7 0.6
v 0.1 0.8 0.6
v -0.2 0.8 0.5
v -0.2 0.9 0.5
v -0.1 0.2 0.5
v -0.1 0.5 0.5
v -0.1 0.8 0.5
v -0.1 0.9 0.5
v 0.1 0.2 0.5
v 0.1 0.5 0.5
v 0.1 0.8 0.5
v 0.1 0.9 0.5
v 0.2 0.8 0.5
v 0.2 0.9 0.5
v -0.3 0.5 0.6
v -0.3 0.7 0.6
v -0.2 0.5 0.6
v -0.2 0.7 0.6
v 0.2 0.5 0.6
v 0.2 0.7 0.6
v 0.3 0.5 0.6
v 0.3 0.7 0.6
v -0.2 0.8 0.4
v -0.2 0.9 0.4
v -0.1 0.8 0.4
v -0.1 0.9 0.4
v 0.1 0.8 0.4
v 0.1 0.9 0.4
v 0.2 0.8 0.4
v 0.2 0.9 0.4
v -0.1 0.3 0.3
v -0.1 0.5 0.3
v 0.1 0.3 0.3
v 0.1 0.5 0.3
v -0.2 0.5 0.2
v -0.2 0.8 0.2
v 0.2 0.5 0.2
v 0.2 0.8 0.2
v -0.1 0.2 0.1
v -0.1 0.3 0.1
v 0.1 0.2 0.1
v 0.1 0.3 0.1
v -0.1 0.2 0.5
v 0.1 0.2 0.5
v -0.1 0.2 0.1
v 0.1 0.2 0.1
v -0.3 0.5 0.7
v -0.2 0.5 0.7
v -0.1 0.5 0.7
v 0.1 0.5 0.7
v 0.2 0.5 0.7
v 0.3 0.5 0.7
v -0.3 0.5 0.6
v -0.2 0.5 0.6
v -0.1 0.5 0.6
v 0.1 0.5 0.6
v 0.2 0.5 0.6
v 0.3 0.5 0.6
v -0.1 0.5 0.5
v 0.1 0.5 0.5
v -0.1 0.5 0.3
v 0.1 0.5 0.3
v -0.2 0.5 0.2
v 0.2 0.5 0.2
v -0.1 0.3 0.3
v 0.1 0.3 0.3
v -0.1 0.3 0.1
v 0.1 0.3 0.1
v -0.3 0.7 0.7
v -0.2 0.7 0.7
v 0.2 0.7 0.7
v 0.3 0.7 0.7
v -0.3 0.7 0.6
v -0.2 0.7 0.6
v 0.2 0.7 0.6
v 0.3 0.7 0.6
v -0.2 0.8 0.7
v -0.1 0.8 0.7
v 0.1 0.8 0.7
v 0.2 0.8 0.7
v -0.2 0.8 0.6
v -0.1 0.8 0.6
v 0.1 0.8 0.6
v 0.2 0.8 0.6
v -0.2 0.8 0.5
v -0.1 0.8 0.5
v 0.1 0.8 0.5
v 0.2 0.8 0.5
v -0.2 0.8 0.4
v -0.1 0.8 0.4
v 0.1 0.8 0.4
v 0.2 0.8 0.4
v -0.2 0.8 0.2
v 0.2 0.8 0.2
v -0.2 0.9 0.5
v -0.1 0.9 0.5
v 0.1 0.9 0.5
v 0.2 0.9 0.5
v -0.2 0.9 0.4
v -0.1 0.9 0.4
v 0.1 0.9 0.4
v 0.2 0.9 0.4

# faces
f 3/1/1 2/1/1 1/1/1
f 4/1/1 2/1/1 3/1/1
f 8/3/1 6/3/1 5/3/1
f 9/1/1 8/1/1 7/1/1
f 10/3/1 6/3/1 8/3/1
f 10/1/1 8/1/1 9/1/1
f 11/3/1 6/3/1 10/3/1
f 12/3/1 6/3/1 11/3/1
f 13/3/1 6/3/1 12/3/1
f 14/3/1 12/3/1 11/3/1
f 15/3/1 12/3/1 14/3/1
f 18/3/1 17/3/1 16/3/1
f 19/3/1 17/3/1 18/3/1
f 20/3/1 18/3/1 16/3/1
f 21/3/1 18/3/1 20/3/1
f 24/2/1 23/2/1 22/2/1
f 25/2/1 23/2/1 24/2/1
f 26/1/1 25/1/1 24/1/1
f 27/1/1 25/1/1 26/1/1
f 30/3/1 29/3/1 28/3/1
f 31/3/1 29/3/1 30/3/1
f 32/2/2 33/2/2 34/2/2
f 34/2/2 33/2/2 35/2/2
f 34/1/2 35/1/2 36/1/2
f 36/1/2 35/1/2 37/1/2
f 38/3/2 39/3/2 40/3/2
f 40/3/2 39/3/2 41/3/2
f 42/3/2 43/3/2 44/3/2
f 44/3/2 43/3/2 45/3/2
f 42/3/2 44/3/2 46/3/2
f 46/3/2 44/3/2 47/3/2
f 48/3/2 49/3/2 51/3/2
f 50/1/2 51/1/2 52/1/2
f 51/3/2 49/3/2 53/3/2
f 52/1/2 51/1/2 53/1/2
f 53/3/2 49/3/2 54/3/2
f 54/3/2 49/3/2 55/3/2
f 55/3/2 49/3/2 56/3/2
f 54/3/2 55/3/2 57/3/2
f 57/3/2 55/3/2 58/3/2
f 59/1/2 60/1/2 61/1/2
f 61/1/2 60/1/2 62/1/2
f 65/1/3 64/1/3 63/1/3
f 66/1/3 64/1/3 65/1/3
f 68/2/3 66/2/3 65/2/3
f 69/1/3 67/1/3 66/1/3
f 69/2/3 66/2/3 68/2/3
f 70/1/3 67/1/3 69/1/3
f 74/2/3 72/2/3 71/2/3
f 75/1/3 73/1/3 72/1/3
f 75/2/3 72/2/3 74/2/3
f 76/1/3 73/1/3 75/1/3
f 77/1/3 75/1/3 74/1/3
f 78/1/3 75/1/3 77/1/3
f 82/3/3 80/3/3 79/3/3
f 82/3/3 81/3/3 80/3/3
f 83/3/3 81/3/3 82/3/3
f 84/3/3 81/3/3 83/3/3
f 89/3/3 86/3/3 85/3/3
f 90/3/3 86/3/3 89/3/3
f 91/3/3 88/3/3 87/3/3
f 92/3/3 88/3/3 91/3/3
f 95/3/3 94/3/3 93/3/3
f 96/3/3 94/3/3 95/3/3
f 97/1/4 98/1/4 99/1/4
f 99/1/4 98/1/4 100/1/4
f 101/1/4 102/1/4 103/1/4
f 103/1/4 102/1/4 104/1/4
f 105/3/4 106/3/4 107/3/4
f 107/3/4 106/3/4 108/3/4
f 109/3/4 110/3/4 111/3/4
f 111/3/4 110/3/4 112/3/4
f 113/3/4 114/3/4 115/3/4
f 115/3/4 114/3/4 116/3/4
f 117/3/4 118/3/4 119/3/4
f 119/3/4 118/3/4 120/3/4
f 121/3/4 122/3/4 123/3/4
f 123/3/4 122/3/4 124/3/4
f 127/3/5 126/3/5 125/3/5
f 128/3/5 126/3/5 127/3/5
f 135/1/5 130/1/5 129/1/5
f 136/2/5 131/2/5 130/2/5
f 136/1/5 130/1/5 135/1/5
f 137/2/5 131/2/5 136/2/5
f 138/2/5 133/2/5 132/2/5
f 139/1/5 134/1/5 133/1/5
f 139/2/5 133/2/5 138/2/5
f 140/1/5 134/1/5 139/1/5
f 141/3/5 138/3/5 137/3/5
f 141/3/5 137/3/5 136/3/5
f 141/3/5 139/3/5 138/3/5
f 142/3/5 139/3/5 141/3/5
f 143/3/5 141/3/5 136/3/5
f 144/3/5 139/3/5 142/3/5
f 145/3/5 143/3/5 136/3/5
f 145/3/5 144/3/5 143/3/5
f 146/3/5 139/3/5 144/3/5
f 146/3/5 144/3/5 145/3/5
f 147/3/6 148/3/6 149/3/6
f 149/3/6 148/3/6 150/3/6
f 151/1/6 152/1/6 155/1/6
f 155/1/6 152/1/6 156/1/6
f 153/1/6 154/1/6 157/1/6
f 157/1/6 154/1/6 158/1/6
f 159/1/6 160/1/6 163/1/6
f 163/1/6 160/1/6 164/1/6
f 161/1/6 162/1/6 165/1/6
f 165/1/6 162/1/6 166/1/6
f 163/3/6 164/3/6 167/3/6
f 164/3/6 165/3/6 167/3/6
f 165/3/6 166/3/6 167/3/6
f 167/3/6 166/3/6 168/3/6
f 168/3/6 166/3/6 169/3/6
f 169/3/6 166/3/6 170/3/6
f 168/3/6 169/3/6 172/3/6
f 172/3/6 169/3/6 173/3/6
f 171/3/6 172/3/6 175/3/6
f 173/3/6 174/3/6 175/3/6
f 172/3/6 173/3/6 175/3/6
f 175/3/6 174/3/6 176/3/6
f 177/3/6 178/3/6 181/3/6
f 181/3/6 178/3/6 182/3/6
f 179/3/6 180/3/6 183/3/6
f 183/3/6 180/3/6 184/3/6
